<svg width="376" height="115" viewBox="0 0 376 115" fill="none" xmlns="http://www.w3.org/2000/svg">
<path d="M183.101 10.5913C183.101 14.7551 185.265 18.4038 188.527 20.4984C191.789 18.4038 193.953 14.7551 193.953 10.5913C193.953 6.42744 191.789 2.7788 188.527 0.684204C185.265 2.7788 183.101 6.42744 183.101 10.5913Z" fill="url(#paint0_linear_143_1380)"/>
<path d="M193.978 20.397C191.062 23.3699 190.048 27.4831 190.902 31.2669C194.697 32.0523 198.796 30.9628 201.712 27.9899C204.628 25.0169 205.642 20.9037 204.788 17.1199C200.993 16.3345 196.894 17.424 193.978 20.397Z" fill="url(#paint1_linear_143_1380)"/>
<path d="M183.075 20.397C185.991 23.3699 187.006 27.4831 186.152 31.2669C182.357 32.0523 178.258 30.9628 175.342 27.9899C172.426 25.0169 171.412 20.9037 172.265 17.1199C176.06 16.3345 180.159 17.424 183.075 20.397Z" fill="url(#paint2_linear_143_1380)"/>
<path d="M192.516 41.098V35.093H184.538V41.1234C180.168 41.647 176.044 42.9899 172.342 45L178.317 50.5912C181.495 49.2483 184.986 48.5135 188.654 48.5135C192.322 48.5135 195.508 49.1892 198.568 50.4223L204.713 44.8733C201.002 42.897 196.886 41.5879 192.516 41.098Z" fill="url(#paint3_linear_143_1380)"/>
<path d="M212.505 99.4593C218.827 93.2516 222.74 84.6198 222.74 75.0675C222.74 63.6233 217.111 53.4881 208.465 47.2804L208.448 47.3057L208.397 47.255L187.825 67.8969L167.879 47.7956C159.63 54.0371 154.305 63.9358 154.305 75.0675C154.305 84.4425 158.083 92.9306 164.194 99.1046L161.252 101.917L166.552 107.213L175.376 98.1587C167.346 93.5894 161.937 84.9577 161.937 75.0675C161.937 68.7584 164.143 62.9645 167.828 58.4121L187.783 78.4374L187.825 78.3952L187.868 78.4374L208.566 57.6604C212.623 62.3226 215.091 68.4036 215.091 75.0675C215.091 85.1519 209.471 93.9273 201.179 98.4205L209.555 107.111L214.855 101.816L212.514 99.4762L212.488 99.4593H212.505Z" fill="url(#paint4_linear_143_1380)"/>
<path d="M194.511 95.0253L191.925 97.4493L198.737 104.73C196.244 105.676 193.573 106.284 190.801 106.478L190.919 102.736L187.378 102.627L187.251 106.512C184.343 106.36 181.554 105.752 178.951 104.78L185.831 97.4493L183.245 95.0253L170.043 109.113C175.46 112.415 181.825 114.316 188.637 114.316C195.449 114.316 201.628 112.466 206.986 109.257L194.494 95.0253H194.511Z" fill="url(#paint5_linear_143_1380)"/>
<path d="M17.3411 65.2702V65.6756H16.1748V79.7634H17.3411V80.1689H10.85V79.7634H12.0248V66.4611H11.9403L8.74548 80.1604H6.08312L2.3389 66.3935H2.25438V79.755H3.4292V80.1604H0.521729V79.755H1.69655V65.6672H0.521729V65.2618H6.26906L9.10046 76.2162L11.653 65.2618H17.3411V65.2702Z" fill="white"/>
<path d="M25.5226 75.1604H21.3051L19.6654 79.755H21.2628V80.1604H18.0088V79.755H19.0061L24.4323 65.1351H26.1818L31.5488 79.755H32.5293V80.1604H25.5648V79.755H27.0777L25.5226 75.1604ZM21.4994 74.6959H25.3535L23.5026 69.1216L21.4994 74.6959Z" fill="white"/>
<path d="M38.5131 72.6266V79.755H39.8992V80.1604H32.9771V79.755H34.3632V65.6672H32.9771V65.2618H39.409C43.8547 65.2618 45.9846 65.7263 45.9846 68.8344C45.9846 71.4273 44.6238 72.1959 42.3672 72.3901V72.4577C44.6661 72.7533 45.4521 73.6486 45.4521 76.1148V77.2381C45.4521 78.6232 45.5198 79.1131 46.1114 79.1131C46.4917 79.1131 46.8129 78.9442 47.0918 77.2803L47.4553 77.3226C47.1341 79.7466 46.5424 80.3631 44.5562 80.3631C41.877 80.3631 41.0825 79.4678 41.0825 76.4695V74.9155C41.0825 73.4037 40.7867 72.6182 39.6372 72.6182H38.5131V72.6266ZM38.5131 72.2212H39.1977C40.7698 72.2212 41.5811 71.3513 41.5811 69.054V68.4375C41.5811 66.0557 40.7106 65.6756 39.2146 65.6756H38.5131V72.2297V72.2212Z" fill="white"/>
<path d="M59.2797 65.6672H57.6231V65.2618H60.8771V65.6672H59.8798L54.7494 80.3716H52.9576L47.5315 65.6672H46.551V65.2618H53.5154V65.6672H52.0025L55.5777 76.3091L59.2797 65.6672Z" fill="white"/>
<path d="M72.5239 65.2702L72.7352 69.4847H72.3548C71.18 66.6975 70.1827 65.7431 67.6048 65.7431H66.861V72.3141H67.5879C68.974 72.3141 69.8699 71.1401 70.2249 69.5269H70.5461V75.8276H70.1827C69.6755 73.6992 68.8641 72.8715 67.3682 72.8715H66.861V79.7043H67.6724C70.377 79.7043 72.2534 77.8546 72.8873 75.532H73.3099L73.1408 80.1688H61.4518V79.7043H62.7111V65.7431H61.4518V65.2786H72.5239V65.2702Z" fill="white"/>
<path d="M82.4127 65.2702V65.7347H80.156V79.6958H80.9252C83.5622 79.6958 84.737 77.7786 85.9963 75.1857H86.4443L86.0386 80.1603H74.7552V79.6958H76.0146V65.7347H74.7552V65.2702H82.4212H82.4127Z" fill="white"/>
<path d="M94.9386 65.0337C99.5196 65.0337 101.835 67.8462 101.835 72.6688C101.835 77.4915 99.6041 80.3715 94.6851 80.3715C89.766 80.3715 87.6615 77.6266 87.6615 72.9476C87.6615 68.2685 90.1971 65.0337 94.9471 65.0337H94.9386ZM97.4489 72.0101C97.4489 67.652 97.3221 65.4814 94.7696 65.4814C92.2171 65.4814 92.0227 67.7364 92.0227 72.0945V73.6232C92.0227 77.6266 92.2763 79.9239 94.7696 79.9239C97.2629 79.9239 97.4489 77.8631 97.4489 73.581V72.0101Z" fill="white"/>
<path d="M114.978 75.2871V65.6672H113.592V65.2618H116.702V65.6672H115.528V75.1351C115.528 78.4121 114.437 80.3716 110.076 80.3716C106.602 80.3716 104.117 79.1384 104.117 74.907V65.6756H102.943V65.2702H109.653V65.6756H108.267V75.6334C108.267 77.9729 108.825 79.679 111.437 79.679C113.584 79.679 114.97 78.3361 114.97 75.2955L114.978 75.2871Z" fill="white"/>
<path d="M126.456 77.6942C126.456 75.929 125.137 75.3546 122.517 74.6114C119.939 73.8851 117.978 72.8631 117.978 69.6536C117.978 67.2719 119.745 65.0337 123.024 65.0337C124.985 65.0337 126.092 65.6925 126.811 65.6925C127.174 65.6925 127.276 65.5405 127.428 65.2702H127.664L127.817 69.5692H127.478C126.397 67.6097 124.943 65.4814 122.754 65.4814C121.224 65.4814 120.159 66.3766 120.159 67.6266C120.159 69.1976 121.604 69.7297 123.76 70.304C126.126 70.9459 128.738 71.7482 128.738 75.2871C128.738 78.353 126.65 80.3715 123.523 80.3715C121.461 80.3715 119.669 79.7296 119.077 79.7296C118.739 79.7296 118.612 79.9661 118.435 80.3715H118.139L117.928 75.304H118.291C119.356 77.4323 121.418 79.9239 123.76 79.9239C125.036 79.9239 126.464 79.2398 126.464 77.6942H126.456Z" fill="white"/>
<path d="M15.0337 84.4425L15.1859 87.4493H14.9154C14.0787 85.4645 13.3687 84.7803 11.5346 84.7803H11.0022V89.4678H11.5177C12.5066 89.4678 13.1405 88.6317 13.4025 87.483H13.6307V91.9763H13.3687C13.0053 90.456 12.4305 89.8648 11.3656 89.8648H11.0022V94.7381H11.5769C13.5039 94.7381 14.8394 93.4205 15.2958 91.7651H15.6L15.4817 95.0759H7.14807V94.7465H8.04398V84.7972H7.14807V84.4678H15.0422L15.0337 84.4425Z" fill="white"/>
<path d="M36.2567 84.4425V84.7297H35.42V94.7719H36.2567V95.059H31.6251V94.7719H32.4618V85.2955H32.4026L30.1291 95.0675H28.2274L25.5565 85.2533H25.4974V94.7803H26.3341V95.0675H24.2719V94.7803H25.1086V84.7381H24.2719V84.451H28.3711L30.3911 92.2634L32.2167 84.451H36.2652L36.2567 84.4425Z" fill="white"/>
<path d="M50.0417 84.2736C53.3041 84.2736 54.9607 86.2752 54.9607 89.7212C54.9607 93.1671 53.3633 95.211 49.8642 95.211C46.3651 95.211 44.8522 93.2516 44.8522 89.9154C44.8522 86.5793 46.6609 84.2736 50.0417 84.2736ZM51.8335 89.2482C51.8335 86.1401 51.7405 84.5945 49.9233 84.5945C48.1062 84.5945 47.9625 86.1992 47.9625 89.3073V90.3969C47.9625 93.2516 48.1484 94.8901 49.9233 94.8901C51.6983 94.8901 51.8335 93.4205 51.8335 90.3715V89.2482Z" fill="white"/>
<path d="M72.5241 88.2516H72.2367C71.4169 85.777 70.9435 84.7635 69.5659 84.7635H69.3799V94.7465H70.6731V95.0675H65.1286V94.7465H66.4217V84.7635H66.2274C64.8497 84.7635 64.3257 85.9037 63.5565 88.2516H63.2692L63.4213 84.4425H72.3804L72.5325 88.2516H72.5241Z" fill="white"/>
<path d="M85.6921 84.4425V84.7297H84.8554V94.7719H85.6921V95.059H81.0604V94.7719H81.8972V84.7297H81.0604V84.4425H85.6921Z" fill="white"/>
<path d="M99.4689 84.2736C102.731 84.2736 104.388 86.2752 104.388 89.7212C104.388 93.1671 102.791 95.211 99.2914 95.211C95.7923 95.211 94.2794 93.2516 94.2794 89.9154C94.2794 86.5793 96.0881 84.2736 99.4689 84.2736ZM101.261 89.2482C101.261 86.1401 101.168 84.5945 99.3506 84.5945C97.5334 84.5945 97.3897 86.1992 97.3897 89.3073V90.3969C97.3897 93.2516 97.5757 94.8901 99.3506 94.8901C101.126 94.8901 101.261 93.4205 101.261 90.3715V89.2482Z" fill="white"/>
<path d="M121.562 95.059H119.441L114.234 85.2449V94.7719H115.071V95.059H112.992V94.7719H113.829V84.7297H112.992V84.4425H117.184L121.165 92.0607V84.7381H120.328V84.451H122.407V84.7381H121.571V95.0675L121.562 95.059Z" fill="white"/>
<path d="M274.669 67.179V77.3394H270.494C269.531 77.3394 268.702 77.1536 268.026 76.7735C267.342 76.3935 266.826 75.8529 266.479 75.135H266.403C266.108 75.8529 265.685 76.3935 265.119 76.7735C264.552 77.1451 263.876 77.3394 263.073 77.3394H261.4C261.239 78.4289 260.876 79.358 260.301 80.1266C259.726 80.8951 258.983 81.4864 258.044 81.8833C257.106 82.2887 256.024 82.483 254.782 82.483C253.379 82.483 252.179 82.2296 251.164 81.7144C250.159 81.1992 249.39 80.456 248.857 79.4847C248.325 78.5134 248.063 77.3479 248.063 75.9881V75.1435H250.869V75.9881C250.869 77.3479 251.207 78.4036 251.891 79.1553C252.576 79.907 253.539 80.287 254.782 80.287C255.602 80.287 256.303 80.1181 256.886 79.7803C257.47 79.4424 257.918 78.9441 258.23 78.3022C258.543 77.6604 258.695 76.8833 258.695 75.9881V68.2769H261.501V75.1435H263.242C264.079 75.1435 264.73 74.9154 265.195 74.4509C265.66 73.9864 265.888 73.336 265.888 72.4914V68.2769H268.694V72.4914C268.694 73.336 268.922 73.9948 269.37 74.4509C269.818 74.907 270.469 75.1435 271.322 75.1435H271.88V67.1874H274.686L274.669 67.179Z" fill="white"/>
<path d="M289.908 75.2449V77.2297L289.579 77.3395H287.212C286.933 79.0709 286.215 80.3547 285.048 81.2077C283.882 82.0523 282.251 82.4746 280.146 82.4746H278.879V80.2702H280.053C281.347 80.2702 282.335 80.0422 283.028 79.5777C283.722 79.1216 284.169 78.3699 284.389 77.331H282.969C281.034 77.331 279.589 76.8918 278.642 76.0135C277.695 75.1351 277.214 73.8006 277.214 72.0101C277.214 71.005 277.425 70.1013 277.856 69.3074C278.287 68.5135 278.887 67.8969 279.656 67.4577C280.425 67.0185 281.304 66.799 282.285 66.799C283.265 66.799 284.161 67.0185 284.922 67.4662C285.682 67.9138 286.282 68.5557 286.713 69.4003C287.145 70.2449 287.356 71.2415 287.356 72.407V75.1351H289.579L289.908 75.2449ZM280.746 74.3581C281.237 74.8733 281.972 75.1351 282.969 75.1351H284.558V72.407C284.558 71.2922 284.364 70.4476 283.992 69.8733C283.612 69.2989 283.045 69.0118 282.293 69.0118C281.854 69.0118 281.465 69.1385 281.118 69.3919C280.772 69.6452 280.51 70 280.315 70.456C280.121 70.9121 280.028 71.4273 280.028 72.0101C280.028 73.0574 280.273 73.8344 280.755 74.3496L280.746 74.3581Z" fill="white"/>
<path d="M298.335 75.2701V77.2296L298.005 77.3394H297.016C296.044 77.3394 295.216 77.1451 294.54 76.7566C293.864 76.3681 293.348 75.7853 292.993 75.0167H292.926C292.655 75.7853 292.25 76.3596 291.7 76.7566C291.151 77.1535 290.492 77.3394 289.697 77.3394H289.562L289.232 77.2296V75.2448L289.562 75.135H289.714C290.576 75.135 291.235 74.89 291.683 74.4002C292.14 73.9103 292.359 73.184 292.359 72.2211V61.537H295.174V72.2211C295.174 73.184 295.402 73.9103 295.85 74.4002C296.298 74.89 296.949 75.135 297.802 75.135H297.98L298.31 75.2701H298.335Z" fill="white"/>
<path d="M297.676 77.2296V75.2448L298.005 75.135H304.403L304.733 75.2448V77.2296L304.403 77.3394H298.005L297.676 77.2296Z" fill="white"/>
<path d="M313.16 75.2702V77.2296L312.83 77.3394H311.841C310.869 77.3394 310.041 77.1452 309.365 76.7567C308.688 76.3681 308.173 75.7854 307.818 75.0168H307.75C307.48 75.7854 307.074 76.3597 306.525 76.7567C305.975 77.1536 305.316 77.3394 304.522 77.3394H304.386L304.057 77.2296V75.2448L304.386 75.135H304.539C305.401 75.135 306.06 74.8901 306.508 74.4002C306.964 73.9104 307.184 73.184 307.184 72.2212V68.2685H309.998V72.2212C309.998 73.184 310.227 73.9104 310.675 74.4002C311.123 74.8901 311.773 75.135 312.627 75.135H312.805L313.134 75.2702H313.16ZM306.127 82.0354C305.899 81.9087 305.722 81.7313 305.595 81.5117C305.46 81.2921 305.401 81.0472 305.401 80.7854C305.401 80.3715 305.544 80.0252 305.832 79.7465C306.119 79.4678 306.466 79.3327 306.88 79.3327C307.294 79.3327 307.649 79.4678 307.945 79.7465C308.24 80.0252 308.384 80.3715 308.384 80.7854C308.384 81.0472 308.317 81.2921 308.181 81.5117C308.046 81.7313 307.86 81.9087 307.632 82.0354C307.404 82.1621 307.15 82.2296 306.88 82.2296C306.609 82.2296 306.364 82.1621 306.136 82.0354H306.127ZM309.694 82.0354C309.466 81.9087 309.289 81.7313 309.162 81.5117C309.027 81.2921 308.967 81.0472 308.967 80.7854C308.967 80.3715 309.111 80.0252 309.39 79.7465C309.677 79.4678 310.024 79.3327 310.446 79.3327C310.869 79.3327 311.216 79.4678 311.511 79.7465C311.799 80.0252 311.951 80.3715 311.951 80.7854C311.951 81.0472 311.883 81.2921 311.748 81.5117C311.613 81.7313 311.427 81.9087 311.199 82.0354C310.97 82.1621 310.717 82.2296 310.446 82.2296C310.176 82.2296 309.931 82.1621 309.703 82.0354H309.694Z" fill="white"/>
<path d="M312.5 77.2296V75.2448L312.83 75.135H319.228L319.558 75.2448V77.2296L319.228 77.3394H312.83L312.5 77.2296Z" fill="white"/>
<path d="M318.899 77.2296V75.2448L319.228 75.135H325.626L325.956 75.2448V77.2296L325.626 77.3394H319.228L318.899 77.2296Z" fill="white"/>
<path d="M325.305 77.2296V75.2448L325.635 75.135H332.033L332.363 75.2448V77.2296L332.033 77.3394H325.635L325.305 77.2296Z" fill="white"/>
<path d="M341.719 67.4661C342.488 67.9137 343.088 68.5556 343.519 69.4002C343.95 70.2448 344.161 71.2414 344.161 72.407V77.331H332.033L331.703 77.2212V75.2364L332.033 75.1266H335.126V75.0759C334.382 74.3411 334.011 73.3191 334.011 72.01C334.011 70.9965 334.222 70.0928 334.653 69.3073C335.084 68.5218 335.684 67.9053 336.453 67.4661C337.222 67.0269 338.101 66.8073 339.073 66.8073C340.045 66.8073 340.95 67.0269 341.719 67.4746V67.4661ZM336.495 64.6536C336.276 64.5269 336.098 64.3496 335.963 64.13C335.828 63.9104 335.769 63.6739 335.769 63.4205C335.769 63.1671 335.836 62.9137 335.963 62.6942C336.098 62.4746 336.276 62.3056 336.495 62.1705C336.715 62.0354 336.96 61.9763 337.222 61.9763C337.484 61.9763 337.738 62.0438 337.966 62.1705C338.194 62.2972 338.363 62.4746 338.499 62.6942C338.634 62.9137 338.693 63.1502 338.693 63.4205C338.693 63.6908 338.625 63.9104 338.499 64.13C338.363 64.3496 338.186 64.5185 337.958 64.6536C337.729 64.7803 337.484 64.8479 337.222 64.8479C336.96 64.8479 336.715 64.7803 336.495 64.6536ZM341.355 75.135V72.407C341.355 71.309 341.161 70.4729 340.764 69.8901C340.366 69.3073 339.817 69.0117 339.099 69.0117C338.634 69.0117 338.22 69.1384 337.873 69.3918C337.527 69.6452 337.265 70.0083 337.079 70.4644C336.893 70.9205 336.808 71.4526 336.808 72.0522C336.808 73.0489 337.053 73.8174 337.552 74.3411C338.051 74.8647 338.786 75.1266 339.766 75.1266H341.355V75.135ZM338.042 61.2583C337.763 60.9881 337.619 60.6502 337.619 60.2448C337.619 59.8394 337.763 59.5016 338.042 59.2313C338.321 58.9611 338.668 58.8175 339.073 58.8175C339.479 58.8175 339.825 58.9526 340.113 59.2313C340.392 59.5016 340.535 59.8394 340.535 60.2448C340.535 60.6502 340.392 60.9881 340.113 61.2583C339.834 61.5286 339.487 61.6722 339.073 61.6722C338.659 61.6722 338.321 61.5371 338.042 61.2583ZM340.189 64.6536C339.969 64.5269 339.792 64.3496 339.656 64.13C339.521 63.9104 339.462 63.6739 339.462 63.4205C339.462 63.0151 339.606 62.6773 339.885 62.3985C340.164 62.1198 340.51 61.9847 340.916 61.9847C341.321 61.9847 341.668 62.1198 341.955 62.3985C342.234 62.6773 342.378 63.0151 342.378 63.4205C342.378 63.6739 342.31 63.9104 342.184 64.13C342.048 64.3496 341.871 64.5185 341.651 64.6536C341.431 64.7803 341.186 64.8479 340.924 64.8479C340.662 64.8479 340.417 64.7803 340.197 64.6536H340.189Z" fill="white"/>
<path d="M344.694 80.3377C344.778 80.3377 344.931 80.3462 345.142 80.3462C346.055 80.3462 346.731 80.0928 347.179 79.5945C347.627 79.0877 347.847 78.3276 347.847 77.2972V67.179H350.661V77.3394C350.661 79.0708 350.23 80.363 349.376 81.2076C348.523 82.0522 347.221 82.483 345.48 82.483C345.117 82.483 344.855 82.483 344.694 82.4745V80.3377Z" fill="white"/>
<path d="M353.611 72.1029V61.537H356.417V72.1029C356.417 73.1586 356.636 73.9272 357.076 74.4086C357.515 74.89 358.183 75.135 359.079 75.135H359.231L359.561 75.2532V77.2211L359.231 77.3309H358.496C355.242 77.3309 353.611 75.5826 353.611 72.0944V72.1029Z" fill="white"/>
<path d="M363.618 75.9373V77.3394H359.231C358.631 77.3394 358.462 76.9002 358.462 76.6046C358.462 76.3428 358.64 75.9373 359.231 75.9373H363.618Z" fill="white"/>
<path d="M373.54 67.4661C374.31 67.9137 374.91 68.5303 375.349 69.3157C375.78 70.1012 376 71.0049 376 72.01C376 73.8005 375.527 75.135 374.572 76.0134C373.617 76.8917 372.171 77.3309 370.236 77.3309H363.618L363.288 77.2211V75.2363L363.618 75.1265H365.841V72.3985C365.841 71.2414 366.052 70.2363 366.483 69.3918C366.906 68.5472 367.506 67.9053 368.283 67.4576C369.052 67.01 369.94 66.7904 370.929 66.7904C371.918 66.7904 372.771 67.01 373.54 67.4576V67.4661ZM372.459 74.358C372.94 73.8428 373.185 73.0573 373.185 72.0184C373.185 71.4357 373.092 70.9205 372.898 70.4644C372.712 70.0083 372.442 69.6536 372.095 69.4002C371.749 69.1468 371.36 69.0201 370.92 69.0201C370.16 69.0201 369.593 69.3073 369.213 69.8816C368.833 70.4559 368.647 71.3005 368.647 72.4154V75.1434H370.236C371.233 75.1434 371.968 74.8816 372.459 74.3664V74.358Z" fill="white"/>
<path d="M278.769 93.1502V94.7211L278.507 94.8056H276.52C276.394 95.6671 276.106 96.4103 275.65 97.0184C275.194 97.6265 274.602 98.0911 273.858 98.412C273.114 98.733 272.252 98.8934 271.263 98.8934C270.148 98.8934 269.193 98.6907 268.39 98.2853C267.587 97.8799 266.978 97.2887 266.556 96.5117C266.133 95.7346 265.922 94.814 265.922 93.733V93.0657H268.145V93.733C268.145 94.814 268.415 95.6502 268.956 96.2499C269.497 96.8495 270.258 97.1536 271.246 97.1536C271.897 97.1536 272.455 97.0184 272.92 96.7482C273.385 96.4779 273.74 96.0894 273.985 95.5742C274.23 95.059 274.357 94.4509 274.357 93.733V87.6181H276.58V93.0657H278.481L278.743 93.1502H278.769ZM270.393 88.2347C270.207 88.1249 270.055 87.9813 269.945 87.8039C269.835 87.6181 269.776 87.4239 269.776 87.1958C269.776 86.9678 269.827 86.7651 269.945 86.5877C270.055 86.4019 270.198 86.2583 270.384 86.157C270.57 86.0556 270.773 85.9965 271.001 85.9965C271.23 85.9965 271.432 86.0472 271.627 86.157C271.813 86.2668 271.965 86.4103 272.075 86.5877C272.185 86.7735 272.244 86.9762 272.244 87.1958C272.244 87.4154 272.185 87.6181 272.075 87.8039C271.965 87.9897 271.813 88.1333 271.627 88.2347C271.441 88.3445 271.23 88.3951 271.001 88.3951C270.773 88.3951 270.579 88.3445 270.393 88.2347Z" fill="white"/>
<path d="M294.523 86.7482V94.814H291.21C290.441 94.814 289.782 94.662 289.241 94.3495C288.7 94.037 288.294 93.5809 288.015 92.9813H287.981C287.533 94.2651 286.646 94.8985 285.31 94.8985C284.584 94.8985 283.958 94.738 283.451 94.4255C282.944 94.113 282.555 93.6401 282.293 93.0235H282.251C282.031 93.6147 281.71 94.0624 281.279 94.358C280.848 94.662 280.332 94.814 279.715 94.814H278.507L278.245 94.7296V93.1586L278.507 93.0742H279.732C280.417 93.0742 280.941 92.8799 281.296 92.4914C281.659 92.1029 281.837 91.5286 281.837 90.76V87.6266H284.06V90.76C284.06 91.5539 284.203 92.1536 284.499 92.5505C284.795 92.9559 285.209 93.1502 285.75 93.1502C286.333 93.1502 286.781 92.9475 287.085 92.5505C287.39 92.1536 287.542 91.5539 287.542 90.7515V87.6181H289.765V90.7515C289.765 91.5201 289.942 92.0944 290.306 92.483C290.661 92.8715 291.185 93.0657 291.852 93.0657H292.3V86.7482H294.523ZM286.595 85.9036C286.418 85.8022 286.274 85.6671 286.173 85.4897C286.071 85.3124 286.012 85.1266 286.012 84.9239C286.012 84.7211 286.063 84.5269 286.173 84.3495C286.274 84.1722 286.418 84.037 286.595 83.9357C286.773 83.8343 286.967 83.7837 287.17 83.7837C287.373 83.7837 287.584 83.8343 287.753 83.9357C287.931 84.037 288.074 84.1722 288.176 84.3495C288.277 84.5269 288.336 84.7127 288.336 84.9239C288.336 85.135 288.286 85.3124 288.176 85.4897C288.074 85.6671 287.931 85.8022 287.753 85.9036C287.576 86.0049 287.381 86.0556 287.17 86.0556C286.959 86.0556 286.764 86.0049 286.595 85.9036ZM287.821 83.2093C287.601 82.9897 287.483 82.7279 287.483 82.407C287.483 82.086 287.593 81.8242 287.821 81.6046C288.04 81.385 288.319 81.2752 288.641 81.2752C288.962 81.2752 289.241 81.385 289.46 81.6046C289.68 81.8242 289.798 82.086 289.798 82.407C289.798 82.7279 289.689 82.9982 289.46 83.2093C289.241 83.4289 288.962 83.5387 288.641 83.5387C288.319 83.5387 288.04 83.4289 287.821 83.2093ZM289.528 85.9036C289.351 85.8022 289.207 85.6671 289.105 85.4897C289.004 85.3124 288.945 85.1266 288.945 84.9239C288.945 84.6029 289.055 84.3326 289.283 84.113C289.503 83.8934 289.782 83.7837 290.103 83.7837C290.424 83.7837 290.703 83.8934 290.923 84.113C291.142 84.3326 291.261 84.6029 291.261 84.9239C291.261 85.1266 291.21 85.3124 291.1 85.4897C290.999 85.6671 290.855 85.8022 290.677 85.9036C290.5 86.0049 290.306 86.0556 290.103 86.0556C289.9 86.0556 289.697 86.0049 289.528 85.9036Z" fill="white"/>
<path d="M306.626 93.1502V94.7211L306.364 94.8056H304.488C304.268 96.1823 303.694 97.2042 302.772 97.8715C301.851 98.5387 300.549 98.8765 298.884 98.8765H297.879V97.1282H298.808C299.831 97.1282 300.617 96.9424 301.166 96.5792C301.716 96.2161 302.079 95.6248 302.248 94.7971H301.116C299.577 94.7971 298.436 94.4509 297.684 93.7498C296.932 93.0488 296.552 91.9931 296.552 90.5742C296.552 89.7718 296.721 89.0624 297.067 88.4289C297.414 87.8039 297.887 87.314 298.496 86.9593C299.104 86.6046 299.806 86.4357 300.575 86.4357C301.344 86.4357 302.062 86.613 302.671 86.9678C303.279 87.3225 303.753 87.8293 304.091 88.5049C304.429 89.1806 304.598 89.9661 304.598 90.8867V93.0488H306.364L306.626 93.1333V93.1502ZM299.349 92.4492C299.738 92.863 300.321 93.0657 301.107 93.0657H302.367V90.9036C302.367 90.0167 302.214 89.3495 301.91 88.8934C301.606 88.4374 301.158 88.2093 300.566 88.2093C300.22 88.2093 299.907 88.3107 299.637 88.5134C299.366 88.7161 299.146 88.9948 298.994 89.358C298.842 89.7127 298.766 90.1265 298.766 90.5911C298.766 91.4188 298.96 92.0353 299.341 92.4492H299.349Z" fill="white"/>
<path d="M306.102 94.7296V93.1586L306.364 93.0742H311.444L311.706 93.1586V94.7296L311.444 94.814H306.364L306.102 94.7296Z" fill="white"/>
<path d="M311.182 94.7296V93.1586L311.444 93.0742H316.523L316.785 93.1586V94.7296L316.523 94.814H311.444L311.182 94.7296Z" fill="white"/>
<path d="M316.261 94.7296V93.1586L316.523 93.0742H321.603L321.865 93.1586V94.7296L321.603 94.814H316.523L316.261 94.7296Z" fill="white"/>
<path d="M321.341 94.7296V93.1586L321.603 93.0742H326.683L326.945 93.1586V94.7296L326.683 94.814H321.603L321.341 94.7296Z" fill="white"/>
<path d="M326.412 94.7296V93.1586L326.674 93.0742H331.754L332.016 93.1586V94.7296L331.754 94.814H326.674L326.412 94.7296Z" fill="white"/>
<path d="M331.492 94.7296V93.1586L331.754 93.0742H336.834L337.096 93.1586V94.7296L336.834 94.814H331.754L331.492 94.7296Z" fill="white"/>
<path d="M349.148 93.1671V94.7211L348.886 94.8056H348.075C347.289 94.8056 346.638 94.6451 346.105 94.3326C345.581 94.0201 345.184 93.5472 344.914 92.9306H344.888C344.66 93.5472 344.297 94.0201 343.806 94.3326C343.316 94.6451 342.674 94.8056 341.879 94.8056H336.825L336.563 94.7211V93.1502L336.825 93.0657H338.592V90.9036C338.592 89.983 338.761 89.1891 339.099 88.5218C339.437 87.8546 339.91 87.3394 340.527 86.9847C341.136 86.6299 341.837 86.4526 342.632 86.4526C343.426 86.4526 344.094 86.6299 344.702 86.9847C345.311 87.3394 345.793 87.8293 346.139 88.4543C346.486 89.0793 346.655 89.7887 346.655 90.5911V90.7516C346.655 91.5286 346.832 92.1113 347.179 92.4914C347.525 92.8799 348.041 93.0657 348.709 93.0657H348.886L349.148 93.1671ZM343.849 92.4492C344.237 92.0353 344.423 91.4188 344.423 90.5911C344.423 90.1181 344.347 89.7043 344.195 89.3495C344.043 88.9948 343.832 88.7076 343.561 88.5134C343.291 88.3191 342.97 88.2178 342.606 88.2178C342.023 88.2178 341.584 88.4458 341.279 88.9103C340.975 89.3749 340.823 90.0421 340.823 90.912V93.0742H342.082C342.868 93.0742 343.46 92.8715 343.84 92.4576L343.849 92.4492Z" fill="white"/>
<path d="M353.019 86.7482V94.814H348.886L348.624 94.7296V93.1586L348.886 93.0742H350.788V86.7566H353.01L353.019 86.7482ZM349.478 98.5471C349.3 98.4458 349.156 98.3022 349.055 98.1333C348.954 97.9559 348.903 97.7617 348.903 97.559C348.903 97.2296 349.013 96.9509 349.241 96.7313C349.469 96.5117 349.748 96.4019 350.078 96.4019C350.407 96.4019 350.686 96.5117 350.923 96.7313C351.151 96.9509 351.269 97.2296 351.269 97.559C351.269 97.7701 351.219 97.9559 351.109 98.1333C350.999 98.3106 350.855 98.4458 350.678 98.5471C350.492 98.6485 350.297 98.6992 350.078 98.6992C349.858 98.6992 349.664 98.6485 349.486 98.5471H349.478ZM352.317 98.5471C352.14 98.4458 351.996 98.3022 351.895 98.1333C351.793 97.9559 351.734 97.7617 351.734 97.559C351.734 97.2296 351.844 96.9509 352.072 96.7313C352.301 96.5117 352.579 96.4019 352.909 96.4019C353.239 96.4019 353.518 96.5117 353.754 96.7313C353.982 96.9509 354.101 97.2296 354.101 97.559C354.101 97.7701 354.05 97.9559 353.94 98.1333C353.83 98.3106 353.687 98.4458 353.509 98.5471C353.323 98.6485 353.129 98.6992 352.909 98.6992C352.689 98.6992 352.495 98.6485 352.317 98.5471Z" fill="white"/>
<path d="M355.47 82.2719H357.693V94.8141H355.47V82.2719Z" fill="white"/>
<defs>
<linearGradient id="paint0_linear_143_1380" x1="125.484" y1="73.581" x2="183.178" y2="15.8542" gradientUnits="userSpaceOnUse">
<stop stop-color="#F2D669"/>
<stop offset="1" stop-color="#A7822E"/>
</linearGradient>
<linearGradient id="paint1_linear_143_1380" x1="136.953" y1="85.0421" x2="194.647" y2="27.3153" gradientUnits="userSpaceOnUse">
<stop stop-color="#F2D669"/>
<stop offset="1" stop-color="#A7822E"/>
</linearGradient>
<linearGradient id="paint2_linear_143_1380" x1="127.631" y1="75.7263" x2="185.325" y2="17.9909" gradientUnits="userSpaceOnUse">
<stop stop-color="#F2D669"/>
<stop offset="1" stop-color="#A7822E"/>
</linearGradient>
<linearGradient id="paint3_linear_143_1380" x1="142.675" y1="90.7601" x2="200.361" y2="33.0248" gradientUnits="userSpaceOnUse">
<stop stop-color="#F2D669"/>
<stop offset="1" stop-color="#A7822E"/>
</linearGradient>
<linearGradient id="paint4_linear_143_1380" x1="158.928" y1="107.002" x2="216.622" y2="49.2747" gradientUnits="userSpaceOnUse">
<stop stop-color="#F2D669"/>
<stop offset="1" stop-color="#A7822E"/>
</linearGradient>
<linearGradient id="paint5_linear_143_1380" x1="174.598" y1="122.66" x2="232.284" y2="64.9251" gradientUnits="userSpaceOnUse">
<stop stop-color="#F2D669"/>
<stop offset="1" stop-color="#A7822E"/>
</linearGradient>
</defs>
</svg>
