<svg width="54" height="40" viewBox="0 0 54 40" fill="none" xmlns="http://www.w3.org/2000/svg">
<path d="M52 6V34C52 35.0609 51.5948 36.0783 50.8735 36.8284C50.1522 37.5786 49.1739 38 48.1538 38H5.84615C4.82609 38 3.84781 37.5786 3.12651 36.8284C2.40522 36.0783 2 35.0609 2 34V6M52 6C52 4.93913 51.5948 3.92172 50.8735 3.17157C50.1522 2.42143 49.1739 2 48.1538 2H5.84615C4.82609 2 3.84781 2.42143 3.12651 3.17157C2.40522 3.92172 2 4.93913 2 6M52 6L29.1885 22.424C28.5454 22.8868 27.782 23.1347 27 23.1347C26.218 23.1347 25.4546 22.8868 24.8115 22.424L2 6" stroke="black" stroke-width="2.5" stroke-linecap="round" stroke-linejoin="round"/>
</svg>
