<svg width="54" height="54" viewBox="0 0 54 54" fill="none" xmlns="http://www.w3.org/2000/svg">
<rect x="0.863647" y="0.863647" width="52.4545" height="52.4545" rx="26.2273" fill="white" fill-opacity="0.7"/>
<rect x="0.863647" y="0.863647" width="52.4545" height="52.4545" rx="26.2273" stroke="#E5E7EB"/>
<g filter="url(#filter0_b_153_42)">
<path d="M27.5559 33.6985C27.3009 33.7885 26.8809 33.7885 26.6259 33.6985C24.4509 32.956 19.5909 29.8585 19.5909 24.6085C19.5909 22.291 21.4584 20.416 23.7609 20.416C25.1259 20.416 26.3334 21.076 27.0909 22.096C27.8484 21.076 29.0634 20.416 30.4209 20.416C32.7234 20.416 34.5909 22.291 34.5909 24.6085C34.5909 29.8585 29.7309 32.956 27.5559 33.6985Z" stroke="#800000" stroke-width="1.5" stroke-linecap="round" stroke-linejoin="round"/>
</g>
<defs>
<filter id="filter0_b_153_42" x="14.8409" y="15.666" width="24.5" height="22.85" filterUnits="userSpaceOnUse" color-interpolation-filters="sRGB">
<feFlood flood-opacity="0" result="BackgroundImageFix"/>
<feGaussianBlur in="BackgroundImageFix" stdDeviation="2"/>
<feComposite in2="SourceAlpha" operator="in" result="effect1_backgroundBlur_153_42"/>
<feBlend mode="normal" in="SourceGraphic" in2="effect1_backgroundBlur_153_42" result="shape"/>
</filter>
</defs>
</svg>
