<svg width="374" height="113" viewBox="0 0 374 113" fill="none" xmlns="http://www.w3.org/2000/svg">
<path d="M181.564 9.85201C181.564 13.9927 183.716 17.6211 186.96 19.704C190.205 17.6211 192.356 13.9927 192.356 9.85201C192.356 5.71131 190.205 2.08295 186.96 0C183.716 2.08295 181.564 5.71131 181.564 9.85201Z" fill="url(#paint0_linear_153_299)"/>
<path d="M192.381 19.6033C189.482 22.5597 188.473 26.65 189.322 30.4128C193.096 31.1939 197.172 30.1104 200.072 27.154C202.972 24.1975 203.98 20.1072 203.131 16.3445C199.357 15.5634 195.281 16.6468 192.381 19.6033Z" fill="url(#paint1_linear_153_299)"/>
<path d="M181.539 19.6033C184.439 22.5597 185.447 26.65 184.598 30.4128C180.825 31.1939 176.748 30.1104 173.848 27.154C170.949 24.1975 169.94 20.1072 170.789 16.3445C174.563 15.5634 178.639 16.6468 181.539 19.6033Z" fill="url(#paint2_linear_153_299)"/>
<path d="M190.927 40.189V34.2173H182.993V40.2142C178.648 40.7349 174.546 42.0703 170.865 44.0693L176.807 49.6294C179.967 48.294 183.439 47.5633 187.086 47.5633C190.734 47.5633 193.903 48.2352 196.945 49.4614L203.056 43.9433C199.366 41.9779 195.273 40.6761 190.927 40.189Z" fill="url(#paint3_linear_153_299)"/>
<path d="M210.805 98.2262C217.092 92.0529 220.984 83.4691 220.984 73.9699C220.984 62.5893 215.386 52.5105 206.788 46.3372L206.771 46.3624L206.72 46.312L186.263 66.8391L166.427 46.8495C158.224 53.0564 152.928 62.9 152.928 73.9699C152.928 83.2928 156.685 91.7337 162.762 97.8734L159.837 100.67L165.107 105.936L173.882 96.9327C165.897 92.3889 160.518 83.8051 160.518 73.9699C160.518 67.6958 162.712 61.9341 166.376 57.4071L186.221 77.3211L186.263 77.2791L186.305 77.3211L206.888 56.6596C210.923 61.2958 213.377 67.3431 213.377 73.9699C213.377 83.9983 207.788 92.7248 199.542 97.1931L207.872 105.836L213.142 100.569L210.814 98.243L210.788 98.2262H210.805Z" fill="url(#paint4_linear_153_299)"/>
<path d="M192.911 93.8171L190.339 96.2277L197.113 103.468C194.634 104.408 191.978 105.013 189.221 105.206L189.339 101.485L185.817 101.376L185.691 105.24C182.8 105.089 180.026 104.484 177.437 103.518L184.279 96.2277L181.707 93.8171L168.578 107.827C173.966 111.111 180.295 113 187.069 113C193.844 113 199.988 111.161 205.317 107.969L192.894 93.8171H192.911Z" fill="url(#paint5_linear_153_299)"/>
<path d="M16.7259 64.2269V64.6301H15.566V78.6396H16.7259V79.0427H10.2709V78.6396H11.4392V65.4112H11.3551L8.17805 79.0343H5.53048L1.80707 65.344H1.72302V78.6312H2.89131V79.0343H0V78.6312H1.16829V64.6217H0V64.2185H5.71539L8.53106 75.112L11.0694 64.2185H16.7259V64.2269Z" fill="black"/>
<path d="M24.862 74.0624H20.668L19.0374 78.6314H20.6259V79.0346H17.39V78.6314H18.3818L23.7778 64.0928H25.5176L30.8548 78.6314H31.8298V79.0346H24.9041V78.6314H26.4086L24.862 74.0624ZM20.8613 73.6004H24.6939L22.8533 68.0571L20.8613 73.6004Z" fill="black"/>
<path d="M37.7803 71.5424V78.6312H39.1587V79.0343H32.275V78.6312H33.6534V64.6217H32.275V64.2185H38.6712C43.0922 64.2185 45.2103 64.6805 45.2103 67.7713C45.2103 70.3498 43.8571 71.1141 41.613 71.3073V71.3744C43.8991 71.6684 44.6808 72.5587 44.6808 75.0112V76.1283C44.6808 77.5057 44.748 77.9928 45.3364 77.9928C45.7146 77.9928 46.034 77.8249 46.3113 76.1703L46.6728 76.2123C46.3534 78.6228 45.765 79.2359 43.7898 79.2359C41.1255 79.2359 40.3354 78.3456 40.3354 75.364V73.8186C40.3354 72.3151 40.0412 71.534 38.8981 71.534H37.7803V71.5424ZM37.7803 71.1393H38.4611C40.0244 71.1393 40.8313 70.2742 40.8313 67.9897V67.3765C40.8313 65.008 39.9656 64.6301 38.4779 64.6301H37.7803V71.1477V71.1393Z" fill="black"/>
<path d="M58.4313 64.6217H56.784V64.2185H60.0199V64.6217H59.0281L53.9263 79.2443H52.1444L46.7484 64.6217H45.7734V64.2185H52.6991V64.6217H51.1947L54.75 75.2044L58.4313 64.6217Z" fill="black"/>
<path d="M71.602 64.2268L71.8121 68.4179H71.4339C70.2656 65.6462 69.2738 64.6971 66.7103 64.6971H65.9706V71.2316H66.6934C68.0719 71.2316 68.9628 70.0641 69.3158 68.4599H69.6352V74.7255H69.2738C68.7695 72.609 67.9626 71.7859 66.4749 71.7859H65.9706V78.5807H66.7775C69.4671 78.5807 71.333 76.7413 71.9634 74.4316H72.3836L72.2155 79.0426H60.5914V78.5807H61.8438V64.6971H60.5914V64.2352H71.602V64.2268Z" fill="black"/>
<path d="M81.436 64.2268V64.6887H79.1918V78.5723H79.9567C82.579 78.5723 83.7473 76.6657 84.9997 74.0872H85.4451L85.0417 79.0342H73.821V78.5723H75.0734V64.6887H73.821V64.2268H81.4444H81.436Z" fill="black"/>
<path d="M93.8921 63.9917C98.4476 63.9917 100.751 66.7886 100.751 71.5844C100.751 76.3802 98.5316 79.2443 93.6399 79.2443C88.7482 79.2443 86.6554 76.5146 86.6554 71.8615C86.6554 67.2085 89.1769 63.9917 93.9005 63.9917H93.8921ZM96.3884 70.9293C96.3884 66.5954 96.2623 64.4368 93.724 64.4368C91.1857 64.4368 90.9924 66.6794 90.9924 71.0133V72.5335C90.9924 76.5146 91.2445 78.7991 93.724 78.7991C96.2035 78.7991 96.3884 76.7498 96.3884 72.4915V70.9293Z" fill="black"/>
<path d="M113.82 74.1881V64.6217H112.442V64.2185H115.535V64.6217H114.367V74.0369C114.367 77.2957 113.282 79.2443 108.945 79.2443C105.491 79.2443 103.02 78.018 103.02 73.8102V64.6301H101.852V64.2269H108.525V64.6301H107.147V74.5325C107.147 76.859 107.702 78.5556 110.299 78.5556C112.434 78.5556 113.812 77.2201 113.812 74.1965L113.82 74.1881Z" fill="black"/>
<path d="M125.234 76.5818C125.234 74.8264 123.923 74.2553 121.317 73.5161C118.754 72.7938 116.804 71.7776 116.804 68.5859C116.804 66.2174 118.561 63.9917 121.822 63.9917C123.772 63.9917 124.873 64.6468 125.587 64.6468C125.949 64.6468 126.049 64.4956 126.201 64.2269H126.436L126.587 68.502H126.251C125.175 66.5534 123.73 64.4368 121.553 64.4368C120.031 64.4368 118.972 65.3271 118.972 66.5702C118.972 68.1324 120.41 68.6615 122.553 69.2327C124.906 69.871 127.504 70.6689 127.504 74.1881C127.504 77.2369 125.427 79.2443 122.318 79.2443C120.267 79.2443 118.485 78.6059 117.897 78.6059C117.56 78.6059 117.434 78.8411 117.258 79.2443H116.964L116.754 74.2049H117.115C118.174 76.3214 120.225 78.7991 122.553 78.7991C123.822 78.7991 125.243 78.1188 125.243 76.5818H125.234Z" fill="black"/>
<path d="M14.4313 83.2925L14.5826 86.2825H14.3137C13.4816 84.3088 12.7755 83.6284 10.9517 83.6284H10.4221V88.2899H10.9349C11.9182 88.2899 12.5486 87.4584 12.8092 86.3161H13.0361V90.7844H12.7755C12.4141 89.2726 11.8426 88.6846 10.7836 88.6846H10.4221V93.5309H10.9937C12.91 93.5309 14.238 92.2206 14.6919 90.5744H14.9945L14.8768 93.8668H6.58948V93.5393H7.48041V83.6452H6.58948V83.3177H14.4397L14.4313 83.2925Z" fill="black"/>
<path d="M35.5363 83.2925V83.578H34.7042V93.5644H35.5363V93.85H30.9304V93.5644H31.7625V84.1408H31.7036L29.4427 93.8584H27.5516L24.8956 84.0988H24.8368V93.5728H25.6689V93.8584H23.618V93.5728H24.4501V83.5864H23.618V83.3009H27.6945L29.7032 91.0699L31.5187 83.3009H35.5447L35.5363 83.2925Z" fill="black"/>
<path d="M49.2446 83.1245C52.489 83.1245 54.1363 85.1151 54.1363 88.5419C54.1363 91.9686 52.5478 94.0012 49.0681 94.0012C45.5885 94.0012 44.084 92.0526 44.084 88.735C44.084 85.4174 45.8826 83.1245 49.2446 83.1245ZM51.0265 88.0715C51.0265 84.9807 50.934 83.4437 49.127 83.4437C47.3199 83.4437 47.177 85.0395 47.177 88.1303V89.2138C47.177 92.0526 47.3619 93.682 49.127 93.682C50.892 93.682 51.0265 92.2206 51.0265 89.1886V88.0715Z" fill="black"/>
<path d="M71.6021 87.0804H71.3164C70.5011 84.6195 70.0304 83.6116 68.6604 83.6116H68.4755V93.5393H69.7614V93.8584H64.2478V93.5393H65.5337V83.6116H65.3404C63.9704 83.6116 63.4493 84.7455 62.6845 87.0804H62.3987L62.55 83.2925H71.4593L71.6105 87.0804H71.6021Z" fill="black"/>
<path d="M84.6971 83.2925V83.578H83.865V93.5644H84.6971V93.85H80.0912V93.5644H80.9233V83.578H80.0912V83.2925H84.6971Z" fill="black"/>
<path d="M98.3972 83.1245C101.642 83.1245 103.289 85.1151 103.289 88.5419C103.289 91.9686 101.7 94.0012 98.2207 94.0012C94.7411 94.0012 93.2366 92.0526 93.2366 88.735C93.2366 85.4174 95.0352 83.1245 98.3972 83.1245ZM100.179 88.0715C100.179 84.9807 100.087 83.4437 98.2796 83.4437C96.4725 83.4437 96.3296 85.0395 96.3296 88.1303V89.2138C96.3296 92.0526 96.5145 93.682 98.2796 93.682C100.045 93.682 100.179 92.2206 100.179 89.1886V88.0715Z" fill="black"/>
<path d="M120.368 93.85H118.258L113.081 84.0904V93.5644H113.913V93.85H111.845V93.5644H112.677V83.578H111.845V83.2925H116.014L119.973 90.8684V83.5864H119.141V83.3009H121.208V83.5864H120.376V93.8584L120.368 93.85Z" fill="black"/>
<path d="M272.624 66.1248V76.2287H268.472C267.514 76.2287 266.69 76.044 266.018 75.666C265.337 75.288 264.824 74.7505 264.48 74.0366H264.404C264.11 74.7505 263.689 75.288 263.126 75.666C262.563 76.0356 261.891 76.2287 261.092 76.2287H259.428C259.268 77.3122 258.907 78.2361 258.335 79.0004C257.764 79.7647 257.024 80.3526 256.091 80.7474C255.158 81.1505 254.083 81.3437 252.847 81.3437C251.452 81.3437 250.258 81.0918 249.25 80.5794C248.249 80.0671 247.485 79.328 246.955 78.3621C246.426 77.3962 246.165 76.2371 246.165 74.8849V74.045H248.955V74.8849C248.955 76.2371 249.292 77.287 249.972 78.0345C250.653 78.782 251.611 79.16 252.847 79.16C253.662 79.16 254.36 78.992 254.94 78.656C255.52 78.3201 255.965 77.8245 256.276 77.1862C256.587 76.5479 256.738 75.7752 256.738 74.8849V67.2166H259.529V74.045H261.26C262.092 74.045 262.74 73.8182 263.202 73.3563C263.664 72.8943 263.891 72.2476 263.891 71.4077V67.2166H266.682V71.4077C266.682 72.2476 266.909 72.9027 267.354 73.3563C267.799 73.8098 268.447 74.045 269.296 74.045H269.85V66.1332H272.641L272.624 66.1248Z" fill="black"/>
<path d="M287.778 74.1461V76.1198L287.45 76.229H285.097C284.82 77.9508 284.105 79.2274 282.945 80.0757C281.785 80.9156 280.163 81.3356 278.07 81.3356H276.81V79.1435H277.978C279.264 79.1435 280.247 78.9167 280.936 78.4547C281.626 78.0012 282.071 77.2537 282.29 76.2206H280.878C278.953 76.2206 277.516 75.7839 276.574 74.9104C275.633 74.0369 275.154 72.7098 275.154 70.9292C275.154 69.9298 275.364 69.0311 275.793 68.2416C276.221 67.4521 276.818 66.8389 277.583 66.4022C278.348 65.9654 279.222 65.7471 280.197 65.7471C281.172 65.7471 282.063 65.9654 282.819 66.4106C283.576 66.8557 284.172 67.4941 284.601 68.334C285.03 69.1739 285.24 70.1649 285.24 71.324V74.0369H287.45L287.778 74.1461ZM278.667 73.2642C279.155 73.7765 279.886 74.0369 280.878 74.0369H282.458V71.324C282.458 70.2153 282.264 69.3754 281.895 68.8043C281.516 68.2332 280.953 67.9476 280.205 67.9476C279.768 67.9476 279.382 68.0736 279.037 68.3256C278.692 68.5775 278.432 68.9303 278.238 69.3838C278.045 69.8374 277.953 70.3497 277.953 70.9292C277.953 71.9707 278.196 72.7434 278.675 73.2558L278.667 73.2642Z" fill="black"/>
<path d="M296.158 74.1714V76.12L295.83 76.2292H294.847C293.88 76.2292 293.056 76.036 292.384 75.6496C291.712 75.2633 291.199 74.6837 290.846 73.9194H290.779C290.51 74.6837 290.106 75.2549 289.56 75.6496C289.014 76.0444 288.358 76.2292 287.568 76.2292H287.434L287.106 76.12V74.1462L287.434 74.037H287.585C288.442 74.037 289.098 73.7934 289.543 73.3063C289.997 72.8192 290.216 72.0968 290.216 71.1394V60.5146H293.014V71.1394C293.014 72.0968 293.241 72.8192 293.687 73.3063C294.132 73.7934 294.779 74.037 295.628 74.037H295.805L296.133 74.1714H296.158Z" fill="black"/>
<path d="M295.502 76.1198V74.146L295.83 74.0369H302.193L302.52 74.146V76.1198L302.193 76.229H295.83L295.502 76.1198Z" fill="black"/>
<path d="M310.9 74.1715V76.1201L310.572 76.2293H309.589C308.622 76.2293 307.799 76.0361 307.126 75.6497C306.454 75.2634 305.941 74.6838 305.588 73.9195H305.521C305.252 74.6838 304.848 75.255 304.302 75.6497C303.756 76.0445 303.1 76.2293 302.31 76.2293H302.176L301.848 76.1201V74.1463L302.176 74.0371H302.327C303.184 74.0371 303.84 73.7935 304.285 73.3064C304.739 72.8193 304.958 72.097 304.958 71.1395V67.2087H307.757V71.1395C307.757 72.097 307.984 72.8193 308.429 73.3064C308.874 73.7935 309.522 74.0371 310.371 74.0371H310.547L310.875 74.1715H310.9ZM303.907 80.8991C303.68 80.7731 303.504 80.5967 303.378 80.3784C303.243 80.16 303.184 79.9164 303.184 79.656C303.184 79.2445 303.327 78.9001 303.613 78.623C303.899 78.3458 304.243 78.2114 304.655 78.2114C305.067 78.2114 305.42 78.3458 305.714 78.623C306.008 78.9001 306.151 79.2445 306.151 79.656C306.151 79.9164 306.084 80.16 305.95 80.3784C305.815 80.5967 305.63 80.7731 305.403 80.8991C305.176 81.0251 304.924 81.0923 304.655 81.0923C304.386 81.0923 304.142 81.0251 303.916 80.8991H303.907ZM307.454 80.8991C307.227 80.7731 307.051 80.5967 306.925 80.3784C306.79 80.16 306.731 79.9164 306.731 79.656C306.731 79.2445 306.874 78.9001 307.151 78.623C307.437 78.3458 307.782 78.2114 308.202 78.2114C308.622 78.2114 308.967 78.3458 309.261 78.623C309.547 78.9001 309.698 79.2445 309.698 79.656C309.698 79.9164 309.631 80.16 309.496 80.3784C309.362 80.5967 309.177 80.7731 308.95 80.8991C308.723 81.0251 308.471 81.0923 308.202 81.0923C307.933 81.0923 307.689 81.0251 307.462 80.8991H307.454Z" fill="black"/>
<path d="M310.245 76.1198V74.146L310.573 74.0369H316.935L317.263 74.146V76.1198L316.935 76.229H310.573L310.245 76.1198Z" fill="black"/>
<path d="M316.607 76.1198V74.146L316.935 74.0369H323.298L323.625 74.146V76.1198L323.298 76.229H316.935L316.607 76.1198Z" fill="black"/>
<path d="M322.978 76.1198V74.146L323.306 74.0369H329.669L329.996 74.146V76.1198L329.669 76.229H323.306L322.978 76.1198Z" fill="black"/>
<path d="M339.301 66.4106C340.065 66.8558 340.662 67.4941 341.091 68.334C341.52 69.1739 341.73 70.165 341.73 71.324V76.2206H329.669L329.341 76.1115V74.1377L329.669 74.0285H332.745V73.9781C332.005 73.2474 331.635 72.2311 331.635 70.9293C331.635 69.9214 331.845 69.0227 332.274 68.2416C332.703 67.4605 333.299 66.8474 334.064 66.4106C334.829 65.9739 335.703 65.7555 336.67 65.7555C337.636 65.7555 338.536 65.9739 339.301 66.419V66.4106ZM334.106 63.6138C333.888 63.4878 333.711 63.3114 333.577 63.093C333.442 62.8747 333.383 62.6395 333.383 62.3875C333.383 62.1355 333.451 61.8836 333.577 61.6652C333.711 61.4468 333.888 61.2788 334.106 61.1445C334.325 61.0101 334.569 60.9513 334.829 60.9513C335.09 60.9513 335.342 61.0185 335.569 61.1445C335.796 61.2704 335.964 61.4468 336.098 61.6652C336.233 61.8836 336.292 62.1187 336.292 62.3875C336.292 62.6563 336.224 62.8747 336.098 63.093C335.964 63.3114 335.787 63.4794 335.56 63.6138C335.333 63.7397 335.09 63.8069 334.829 63.8069C334.569 63.8069 334.325 63.7397 334.106 63.6138ZM338.939 74.0369V71.324C338.939 70.2322 338.746 69.4007 338.351 68.8211C337.956 68.2416 337.409 67.9476 336.695 67.9476C336.233 67.9476 335.821 68.0736 335.476 68.3256C335.132 68.5776 334.871 68.9387 334.686 69.3923C334.501 69.8458 334.417 70.3749 334.417 70.9713C334.417 71.9624 334.661 72.7267 335.157 73.2474C335.653 73.7681 336.384 74.0285 337.359 74.0285H338.939V74.0369ZM335.644 60.2374C335.367 59.9686 335.224 59.6326 335.224 59.2295C335.224 58.8263 335.367 58.4904 335.644 58.2216C335.922 57.9528 336.266 57.8101 336.67 57.8101C337.073 57.8101 337.418 57.9444 337.704 58.2216C337.981 58.4904 338.124 58.8263 338.124 59.2295C338.124 59.6326 337.981 59.9686 337.704 60.2374C337.426 60.5061 337.082 60.6489 336.67 60.6489C336.258 60.6489 335.922 60.5145 335.644 60.2374ZM337.779 63.6138C337.561 63.4878 337.384 63.3114 337.25 63.093C337.115 62.8747 337.056 62.6395 337.056 62.3875C337.056 61.9844 337.199 61.6484 337.477 61.3712C337.754 61.0941 338.099 60.9597 338.502 60.9597C338.906 60.9597 339.25 61.0941 339.536 61.3712C339.813 61.6484 339.956 61.9844 339.956 62.3875C339.956 62.6395 339.889 62.8747 339.763 63.093C339.628 63.3114 339.452 63.4794 339.233 63.6138C339.015 63.7397 338.771 63.8069 338.511 63.8069C338.25 63.8069 338.006 63.7397 337.788 63.6138H337.779Z" fill="black"/>
<path d="M342.259 79.2104C342.343 79.2104 342.495 79.2188 342.705 79.2188C343.612 79.2188 344.285 78.9668 344.73 78.4713C345.176 77.9673 345.394 77.2114 345.394 76.1867V66.1248H348.193V76.2287C348.193 77.9505 347.765 79.2356 346.916 80.0755C346.067 80.9154 344.772 81.3437 343.041 81.3437C342.68 81.3437 342.419 81.3437 342.259 81.3353V79.2104Z" fill="black"/>
<path d="M351.126 71.0218V60.5146H353.917V71.0218C353.917 72.0717 354.135 72.836 354.572 73.3147C355.01 73.7934 355.674 74.037 356.564 74.037H356.716L357.044 74.1546V76.1116L356.716 76.2208H355.985C352.749 76.2208 351.126 74.4822 351.126 71.0134V71.0218Z" fill="black"/>
<path d="M361.078 74.835V76.2292H356.716C356.119 76.2292 355.951 75.7924 355.951 75.4985C355.951 75.2381 356.127 74.835 356.716 74.835H361.078Z" fill="black"/>
<path d="M370.945 66.4104C371.71 66.8556 372.307 67.4687 372.744 68.2498C373.173 69.0309 373.391 69.9296 373.391 70.9291C373.391 72.7097 372.921 74.0367 371.971 74.9102C371.021 75.7837 369.584 76.2205 367.659 76.2205H361.078L360.75 76.1113V74.1375L361.078 74.0283H363.288V71.3155C363.288 70.1648 363.499 69.1653 363.927 68.3254C364.347 67.4855 364.944 66.8472 365.717 66.402C366.482 65.9569 367.365 65.7385 368.348 65.7385C369.332 65.7385 370.181 65.9569 370.945 66.402V66.4104ZM369.87 73.264C370.349 72.7517 370.592 71.9706 370.592 70.9375C370.592 70.358 370.5 69.8456 370.307 69.3921C370.122 68.9385 369.853 68.5858 369.508 68.3338C369.164 68.0818 368.777 67.9559 368.34 67.9559C367.583 67.9559 367.02 68.2414 366.642 68.8126C366.264 69.3837 366.079 70.2236 366.079 71.3323V74.0451H367.659C368.651 74.0451 369.382 73.7848 369.87 73.2724V73.264Z" fill="black"/>
<path d="M276.7 91.9518V93.514L276.44 93.598H274.465C274.339 94.4547 274.053 95.1938 273.599 95.7986C273.145 96.4033 272.557 96.8652 271.817 97.1844C271.077 97.5036 270.22 97.6631 269.237 97.6631C268.127 97.6631 267.178 97.4616 266.379 97.0584C265.581 96.6553 264.975 96.0673 264.555 95.2946C264.135 94.5219 263.925 93.6064 263.925 92.5314V91.8678H266.135V92.5314C266.135 93.6064 266.404 94.4379 266.942 95.0343C267.48 95.6306 268.237 95.933 269.22 95.933C269.867 95.933 270.422 95.7986 270.884 95.5298C271.346 95.261 271.699 94.8747 271.943 94.3623C272.187 93.85 272.313 93.2453 272.313 92.5314V86.4505H274.523V91.8678H276.415L276.675 91.9518H276.7ZM268.371 87.0636C268.186 86.9544 268.035 86.8117 267.926 86.6353C267.816 86.4505 267.757 86.2573 267.757 86.0305C267.757 85.8038 267.808 85.6022 267.926 85.4258C268.035 85.241 268.178 85.0983 268.363 84.9975C268.548 84.8967 268.749 84.8379 268.976 84.8379C269.203 84.8379 269.405 84.8883 269.598 84.9975C269.783 85.1067 269.934 85.2494 270.044 85.4258C270.153 85.6106 270.212 85.8122 270.212 86.0305C270.212 86.2489 270.153 86.4505 270.044 86.6353C269.934 86.8201 269.783 86.9628 269.598 87.0636C269.413 87.1728 269.203 87.2232 268.976 87.2232C268.749 87.2232 268.556 87.1728 268.371 87.0636Z" fill="black"/>
<path d="M292.367 85.5856V93.6066H289.073C288.308 93.6066 287.652 93.4555 287.114 93.1447C286.576 92.8339 286.173 92.3804 285.895 91.7841H285.862C285.416 93.0607 284.534 93.6906 283.206 93.6906C282.483 93.6906 281.861 93.5311 281.357 93.2203C280.852 92.9095 280.466 92.4392 280.205 91.8261H280.163C279.945 92.414 279.625 92.8591 279.197 93.1531C278.768 93.4555 278.255 93.6066 277.642 93.6066H276.44L276.179 93.5227V91.9604L276.44 91.8765H277.659C278.339 91.8765 278.861 91.6833 279.214 91.2969C279.575 90.9106 279.751 90.3394 279.751 89.5751V86.4591H281.962V89.5751C281.962 90.3646 282.105 90.961 282.399 91.3557C282.693 91.7589 283.105 91.9521 283.643 91.9521C284.223 91.9521 284.668 91.7505 284.971 91.3557C285.274 90.961 285.425 90.3646 285.425 89.5667V86.4507H287.635V89.5667C287.635 90.331 287.812 90.9022 288.173 91.2885C288.526 91.6749 289.047 91.8681 289.711 91.8681H290.157V85.5856H292.367ZM284.483 84.7457C284.307 84.6449 284.164 84.5105 284.063 84.3342C283.962 84.1578 283.904 83.973 283.904 83.7714C283.904 83.5699 283.954 83.3767 284.063 83.2003C284.164 83.0239 284.307 82.8895 284.483 82.7887C284.66 82.688 284.853 82.6376 285.055 82.6376C285.257 82.6376 285.467 82.688 285.635 82.7887C285.811 82.8895 285.954 83.0239 286.055 83.2003C286.156 83.3767 286.215 83.5615 286.215 83.7714C286.215 83.9814 286.164 84.1578 286.055 84.3342C285.954 84.5105 285.811 84.6449 285.635 84.7457C285.458 84.8465 285.265 84.8969 285.055 84.8969C284.845 84.8969 284.652 84.8465 284.483 84.7457ZM285.702 82.0664C285.484 81.8481 285.366 81.5877 285.366 81.2685C285.366 80.9494 285.475 80.689 285.702 80.4706C285.921 80.2523 286.198 80.1431 286.517 80.1431C286.837 80.1431 287.114 80.2523 287.333 80.4706C287.551 80.689 287.669 80.9494 287.669 81.2685C287.669 81.5877 287.56 81.8565 287.333 82.0664C287.114 82.2848 286.837 82.394 286.517 82.394C286.198 82.394 285.921 82.2848 285.702 82.0664ZM287.4 84.7457C287.223 84.6449 287.081 84.5105 286.98 84.3342C286.879 84.1578 286.82 83.973 286.82 83.7714C286.82 83.4523 286.929 83.1835 287.156 82.9651C287.375 82.7468 287.652 82.6376 287.972 82.6376C288.291 82.6376 288.568 82.7468 288.787 82.9651C289.005 83.1835 289.123 83.4523 289.123 83.7714C289.123 83.973 289.073 84.1578 288.963 84.3342C288.862 84.5105 288.72 84.6449 288.543 84.7457C288.367 84.8465 288.173 84.8969 287.972 84.8969C287.77 84.8969 287.568 84.8465 287.4 84.7457Z" fill="black"/>
<path d="M304.403 91.9516V93.5138L304.143 93.5978H302.277C302.058 94.9669 301.487 95.9831 300.571 96.6466C299.654 97.3102 298.36 97.6461 296.704 97.6461H295.704V95.9075H296.629C297.646 95.9075 298.427 95.7228 298.974 95.3616C299.52 95.0004 299.881 94.4125 300.049 93.5894H298.923C297.393 93.5894 296.259 93.2451 295.511 92.5479C294.763 91.8508 294.385 90.801 294.385 89.3899C294.385 88.592 294.553 87.8865 294.897 87.2566C295.242 86.6351 295.712 86.1479 296.318 85.7952C296.923 85.4424 297.62 85.2744 298.385 85.2744C299.15 85.2744 299.865 85.4508 300.47 85.8036C301.075 86.1563 301.546 86.6603 301.882 87.3322C302.218 88.0041 302.386 88.7852 302.386 89.7007V91.8508H304.143L304.403 91.9348V91.9516ZM297.167 91.2545C297.553 91.666 298.133 91.8676 298.915 91.8676H300.167V89.7175C300.167 88.8356 300.016 88.1721 299.713 87.7185C299.411 87.265 298.965 87.0382 298.377 87.0382C298.032 87.0382 297.721 87.139 297.452 87.3406C297.183 87.5421 296.965 87.8193 296.814 88.1805C296.662 88.5332 296.587 88.9448 296.587 89.4067C296.587 90.2298 296.78 90.8429 297.158 91.2545H297.167Z" fill="black"/>
<path d="M303.882 93.5227V91.9605L304.143 91.8765H309.194L309.454 91.9605V93.5227L309.194 93.6067H304.143L303.882 93.5227Z" fill="black"/>
<path d="M308.933 93.5227V91.9605L309.194 91.8765H314.245L314.506 91.9605V93.5227L314.245 93.6067H309.194L308.933 93.5227Z" fill="black"/>
<path d="M313.985 93.5227V91.9605L314.245 91.8765H319.297L319.557 91.9605V93.5227L319.297 93.6067H314.245L313.985 93.5227Z" fill="black"/>
<path d="M319.036 93.5227V91.9605L319.297 91.8765H324.348L324.609 91.9605V93.5227L324.348 93.6067H319.297L319.036 93.5227Z" fill="black"/>
<path d="M324.079 93.5227V91.9605L324.34 91.8765H329.391L329.652 91.9605V93.5227L329.391 93.6067H324.34L324.079 93.5227Z" fill="black"/>
<path d="M329.131 93.5227V91.9605L329.391 91.8765H334.443L334.703 91.9605V93.5227L334.443 93.6067H329.391L329.131 93.5227Z" fill="black"/>
<path d="M346.689 91.9685V93.5139L346.428 93.5979H345.621C344.84 93.5979 344.192 93.4383 343.663 93.1275C343.142 92.8167 342.747 92.3464 342.478 91.7333H342.453C342.226 92.3464 341.864 92.8167 341.377 93.1275C340.889 93.4383 340.251 93.5979 339.46 93.5979H334.434L334.174 93.5139V91.9517L334.434 91.8677H336.191V89.7175C336.191 88.802 336.359 88.0125 336.695 87.349C337.031 86.6855 337.502 86.1732 338.116 85.8204C338.721 85.4676 339.418 85.2913 340.208 85.2913C340.999 85.2913 341.663 85.4676 342.268 85.8204C342.873 86.1732 343.352 86.6603 343.697 87.2818C344.041 87.9033 344.209 88.6089 344.209 89.4068V89.5663C344.209 90.339 344.386 90.9186 344.73 91.2965C345.075 91.6829 345.588 91.8677 346.252 91.8677H346.428L346.689 91.9685ZM341.419 91.2545C341.805 90.843 341.99 90.2299 341.99 89.4068C341.99 88.9364 341.915 88.5249 341.763 88.1721C341.612 87.8194 341.402 87.5338 341.133 87.3406C340.864 87.1474 340.545 87.0466 340.183 87.0466C339.603 87.0466 339.166 87.2734 338.864 87.7354C338.561 88.1973 338.41 88.8608 338.41 89.7259V91.8761H339.662C340.444 91.8761 341.032 91.6745 341.41 91.2629L341.419 91.2545Z" fill="black"/>
<path d="M350.538 85.5854V93.6065H346.428L346.167 93.5225V91.9603L346.428 91.8763H348.319V85.5939H350.53L350.538 85.5854ZM347.016 97.3188C346.84 97.2181 346.697 97.0753 346.596 96.9073C346.495 96.7309 346.445 96.5377 346.445 96.3362C346.445 96.0086 346.554 95.7314 346.781 95.5131C347.008 95.2947 347.285 95.1855 347.613 95.1855C347.941 95.1855 348.218 95.2947 348.454 95.5131C348.68 95.7314 348.798 96.0086 348.798 96.3362C348.798 96.5461 348.748 96.7309 348.638 96.9073C348.529 97.0837 348.386 97.2181 348.21 97.3188C348.025 97.4196 347.832 97.47 347.613 97.47C347.394 97.47 347.201 97.4196 347.025 97.3188H347.016ZM349.84 97.3188C349.664 97.2181 349.521 97.0753 349.42 96.9073C349.319 96.7309 349.26 96.5377 349.26 96.3362C349.26 96.0086 349.37 95.7314 349.597 95.5131C349.824 95.2947 350.101 95.1855 350.429 95.1855C350.756 95.1855 351.034 95.2947 351.269 95.5131C351.496 95.7314 351.614 96.0086 351.614 96.3362C351.614 96.5461 351.563 96.7309 351.454 96.9073C351.345 97.0837 351.202 97.2181 351.025 97.3188C350.841 97.4196 350.647 97.47 350.429 97.47C350.21 97.47 350.017 97.4196 349.84 97.3188Z" fill="black"/>
<path d="M352.976 81.134H355.186V93.6065H352.976V81.134Z" fill="black"/>
<defs>
<linearGradient id="paint0_linear_153_299" x1="124.267" y1="72.4917" x2="181.641" y2="15.0857" gradientUnits="userSpaceOnUse">
<stop stop-color="#F2D669"/>
<stop offset="1" stop-color="#A7822E"/>
</linearGradient>
<linearGradient id="paint1_linear_153_299" x1="135.673" y1="83.8891" x2="193.046" y2="26.4831" gradientUnits="userSpaceOnUse">
<stop stop-color="#F2D669"/>
<stop offset="1" stop-color="#A7822E"/>
</linearGradient>
<linearGradient id="paint2_linear_153_299" x1="126.402" y1="74.625" x2="183.776" y2="17.2106" gradientUnits="userSpaceOnUse">
<stop stop-color="#F2D669"/>
<stop offset="1" stop-color="#A7822E"/>
</linearGradient>
<linearGradient id="paint3_linear_153_299" x1="141.363" y1="89.575" x2="198.728" y2="32.1606" gradientUnits="userSpaceOnUse">
<stop stop-color="#F2D669"/>
<stop offset="1" stop-color="#A7822E"/>
</linearGradient>
<linearGradient id="paint4_linear_153_299" x1="157.526" y1="105.726" x2="214.899" y2="48.3204" gradientUnits="userSpaceOnUse">
<stop stop-color="#F2D669"/>
<stop offset="1" stop-color="#A7822E"/>
</linearGradient>
<linearGradient id="paint5_linear_153_299" x1="173.109" y1="121.299" x2="230.474" y2="63.8842" gradientUnits="userSpaceOnUse">
<stop stop-color="#F2D669"/>
<stop offset="1" stop-color="#A7822E"/>
</linearGradient>
</defs>
</svg>
