<svg width="44" height="44" viewBox="0 0 44 44" fill="none" xmlns="http://www.w3.org/2000/svg">
<path d="M34.9944 10.889C34.9944 12.0396 34.0617 12.9723 32.9111 12.9723C31.7605 12.9723 30.8278 12.0396 30.8278 10.889C30.8278 9.7384 31.7605 8.80566 32.9111 8.80566C34.0617 8.80566 34.9944 9.7384 34.9944 10.889Z" fill="white" stroke="black" stroke-width="2.5"/>
<path d="M30.6888 2C36.8222 2 41.7999 6.97778 41.7999 13.1111V30.8889C41.7999 37.0222 36.8222 42 30.6888 42H12.911C6.7777 42 1.79993 37.0222 1.79993 30.8889V13.1111C1.79993 6.97778 6.7777 2 12.911 2H21.7999H30.6888Z" stroke="black" stroke-width="2.5" stroke-linecap="round" stroke-linejoin="round"/>
<path d="M21.7999 13.1111C26.711 13.1111 30.6888 17.0889 30.6888 22C30.6888 26.9111 26.711 30.8889 21.7999 30.8889C16.8888 30.8889 12.911 26.9111 12.911 22C12.911 17.0889 16.8888 13.1111 21.7999 13.1111Z" stroke="black" stroke-width="2.5" stroke-linecap="round" stroke-linejoin="round"/>
</svg>
