<svg width="16" height="16" viewBox="0 0 16 16" fill="none" xmlns="http://www.w3.org/2000/svg">
<path d="M11 1.38174H4.33333C2.49238 1.38174 1 2.87413 1 4.71508V11.3817C1 13.2227 2.49238 14.7151 4.33333 14.7151H11C12.8409 14.7151 14.3333 13.2227 14.3333 11.3817V4.71508C14.3333 2.87413 12.8409 1.38174 11 1.38174Z" stroke="white" stroke-width="1.5" stroke-linecap="round" stroke-linejoin="round"/>
<path d="M10.3333 7.62845C10.4156 8.18328 10.3208 8.74993 10.0625 9.24779C9.80414 9.74566 9.3954 10.1494 8.89439 10.4016C8.39337 10.6537 7.8256 10.7415 7.27183 10.6524C6.71805 10.5633 6.20647 10.3018 5.80986 9.90522C5.41325 9.50861 5.15179 8.99703 5.06268 8.44326C4.97357 7.88948 5.06134 7.32171 5.31352 6.8207C5.56569 6.31969 5.96942 5.91094 6.46729 5.65261C6.96516 5.39428 7.5318 5.29951 8.08663 5.38178C8.65258 5.46571 9.17653 5.72942 9.5811 6.13399C9.98566 6.53855 10.2494 7.0625 10.3333 7.62845Z" stroke="white" stroke-width="1.5" stroke-linecap="round" stroke-linejoin="round"/>
<path d="M11.3335 4.38174H11.3402" stroke="white" stroke-width="1.5" stroke-linecap="round" stroke-linejoin="round"/>
</svg>
