<svg width="54" height="42" viewBox="0 0 54 42" fill="none" xmlns="http://www.w3.org/2000/svg">
<path d="M10.5574 41.5539V38.821C10.5574 37.7731 9.91954 37.0901 8.82624 37.0901C8.2797 37.0901 7.68751 37.2723 7.27749 37.8644C6.95878 37.3633 6.50333 37.0901 5.82004 37.0901C5.36438 37.0901 4.90914 37.2266 4.54457 37.7277V37.1812H3.58801V41.5539H4.54457V39.1397C4.54457 38.3656 4.95458 38.001 5.59242 38.001C6.22985 38.001 6.54898 38.411 6.54898 39.1397V41.5539H7.50553V39.1397C7.50553 38.3656 7.96078 38.001 8.55297 38.001C9.19081 38.001 9.50953 38.411 9.50953 39.1397V41.5539H10.5574ZM24.7233 37.1812H23.1748V35.8602H22.2182V37.1812H21.3528V38.0464H22.218V40.0508C22.218 41.053 22.628 41.645 23.7213 41.645C24.1313 41.645 24.5866 41.5085 24.9057 41.3263L24.6322 40.5063C24.359 40.6885 24.0402 40.7341 23.8124 40.7341C23.357 40.7341 23.1748 40.4608 23.1748 40.0052V38.0464H24.7233V37.1812ZM32.8314 37.0899C32.2849 37.0899 31.9205 37.3633 31.6927 37.7277V37.1812H30.7361V41.5539H31.6927V39.0943C31.6927 38.3655 32.0114 37.9555 32.6036 37.9555C32.7858 37.9555 33.0136 38.0012 33.1958 38.0466L33.4691 37.1357C33.2869 37.0901 33.0136 37.0901 32.8314 37.0901M20.5784 37.5457C20.1227 37.2268 19.4851 37.0903 18.8018 37.0903C17.7087 37.0903 16.98 37.6368 16.98 38.5023C16.98 39.2312 17.5265 39.641 18.4831 39.7778L18.9385 39.8234C19.4397 39.9143 19.7129 40.051 19.7129 40.2789C19.7129 40.5976 19.3486 40.8254 18.7107 40.8254C18.0729 40.8254 17.572 40.5976 17.2531 40.37L16.7976 41.0987C17.2987 41.463 17.982 41.6452 18.6651 41.6452C19.9405 41.6452 20.6695 41.0532 20.6695 40.2332C20.6695 39.4588 20.0773 39.0488 19.1662 38.9123L18.7107 38.8667C18.3007 38.821 17.982 38.7301 17.982 38.4568C17.982 38.1379 18.3007 37.9557 18.8018 37.9557C19.3486 37.9557 19.8951 38.1834 20.1684 38.3201L20.5784 37.5457ZM45.9956 37.0903C45.4488 37.0903 45.0845 37.3636 44.8566 37.7279V37.1814H43.9001V41.5541H44.8566V39.0945C44.8566 38.3658 45.1756 37.9557 45.7675 37.9557C45.9499 37.9557 46.1778 38.0014 46.3599 38.0468L46.6332 37.1359C46.451 37.0903 46.1778 37.0903 45.9956 37.0903ZM33.788 39.3678C33.788 40.6887 34.6989 41.6452 36.1111 41.6452C36.7487 41.6452 37.2042 41.5087 37.6596 41.1443L37.2042 40.37C36.8398 40.6432 36.4755 40.7798 36.0655 40.7798C35.2911 40.7798 34.7445 40.2332 34.7445 39.3678C34.7445 38.5479 35.2911 38.0012 36.0655 37.9557C36.4755 37.9557 36.8398 38.0923 37.2042 38.3658L37.6596 37.5914C37.2042 37.2268 36.7487 37.0903 36.1111 37.0903C34.6989 37.0903 33.788 38.0468 33.788 39.3678ZM42.6248 39.3678V37.1814H41.6683V37.7279C41.3493 37.3181 40.8939 37.0903 40.3017 37.0903C39.0719 37.0903 38.1153 38.0468 38.1153 39.3678C38.1153 40.6887 39.0719 41.6452 40.3017 41.6452C40.9393 41.6452 41.395 41.4176 41.6683 41.0076V41.5541H42.6248V39.3678ZM39.1173 39.3678C39.1173 38.5934 39.6184 37.9557 40.4382 37.9557C41.2126 37.9557 41.7593 38.5479 41.7593 39.3678C41.7593 40.1421 41.2126 40.7798 40.4382 40.7798C39.6184 40.7341 39.1173 40.1421 39.1173 39.3678ZM27.6843 37.0903C26.4088 37.0903 25.4977 38.0012 25.4977 39.3678C25.4977 40.7343 26.4086 41.6452 27.7297 41.6452C28.3674 41.6452 29.0052 41.463 29.5063 41.0532L29.0506 40.37C28.6863 40.6432 28.2308 40.8254 27.7754 40.8254C27.1832 40.8254 26.591 40.5521 26.4543 39.7776H29.6885V39.4134C29.7341 38.0012 28.9143 37.0903 27.6843 37.0903ZM27.6841 37.9101C28.2761 37.9101 28.6863 38.2747 28.7772 38.9579H26.4997C26.5908 38.3658 27.0008 37.9101 27.6841 37.9101ZM51.4158 39.3678V35.4504H50.4592V37.7279C50.1403 37.3181 49.6849 37.0903 49.0927 37.0903C47.8628 37.0903 46.9063 38.0468 46.9063 39.3678C46.9063 40.6887 47.8628 41.6452 49.0927 41.6452C49.7305 41.6452 50.186 41.4176 50.4592 41.0076V41.5541H51.4158V39.3678ZM47.9085 39.3678C47.9085 38.5934 48.4094 37.9557 49.2294 37.9557C50.0038 37.9557 50.5503 38.5479 50.5503 39.3678C50.5503 40.1421 50.0038 40.7798 49.2294 40.7798C48.4094 40.7341 47.9085 40.1421 47.9085 39.3678ZM15.9319 39.3678V37.1814H14.9754V37.7279C14.6565 37.3181 14.201 37.0903 13.6088 37.0903C12.379 37.0903 11.4224 38.0468 11.4224 39.3678C11.4224 40.6887 12.379 41.6452 13.6088 41.6452C14.2467 41.6452 14.7021 41.4176 14.9754 41.0076V41.5541H15.9319V39.3678ZM12.379 39.3678C12.379 38.5934 12.8801 37.9557 13.6999 37.9557C14.4743 37.9557 15.021 38.5479 15.021 39.3678C15.021 40.1421 14.4743 40.7798 13.6999 40.7798C12.8801 40.7341 12.379 40.1421 12.379 39.3678Z" fill="black"/>
<path d="M20.2595 3.97485H34.6078V29.7564H20.2595V3.97485Z" fill="#FF5F00"/>
<path d="M21.1706 16.866C21.1706 11.6277 23.6302 6.98148 27.4108 3.97507C24.6324 1.78869 21.1251 0.467773 17.2989 0.467773C8.23404 0.467773 0.900513 7.80129 0.900513 16.866C0.900513 25.9306 8.23404 33.2641 17.2987 33.2641C21.1249 33.2641 24.6322 31.9432 27.4108 29.7566C23.6302 26.7959 21.1706 22.1042 21.1706 16.866Z" fill="#EB001B"/>
<path d="M53.9668 16.8657C53.9668 25.9302 46.6332 33.2639 37.5686 33.2639C33.7424 33.2639 30.2351 31.943 27.4565 29.7564C31.2827 26.7502 33.6969 22.1039 33.6969 16.8657C33.6969 11.6275 31.2371 6.98124 27.4565 3.97483C30.2349 1.78845 33.7424 0.467529 37.5686 0.467529C46.6332 0.467529 53.9668 7.8467 53.9668 16.8657Z" fill="#F79E1B"/>
</svg>
