<svg width="67" height="43" viewBox="0 0 67 43" fill="none" xmlns="http://www.w3.org/2000/svg">
<path d="M6.33204 0.00294194L5.08396 0.0111653C4.67159 0.0248696 4.25098 0.0467964 3.84137 0.1208C3.22233 0.218335 2.63536 0.461014 2.12876 0.828873C1.62215 1.19673 1.21039 1.67926 0.92734 2.23675C0.734904 2.61499 0.613945 2.99871 0.542469 3.41532C0.465494 3.82097 0.440752 4.23758 0.432505 4.64871L0.421509 5.22156V36.8978C0.421509 37.0878 0.424258 37.2769 0.429756 37.4651C0.440752 37.8763 0.465494 38.2956 0.539719 38.704C0.611196 39.1133 0.741319 39.5052 0.93009 39.8798C1.3098 40.6235 1.91614 41.228 2.66201 41.6066C3.04139 41.7984 3.42626 41.9218 3.84412 41.9958C4.25098 42.0698 4.66885 42.0945 5.08121 42.1054L5.65302 42.1136H61.168L61.7371 42.1054C62.1495 42.0945 62.5701 42.0698 62.9797 41.9958C63.3893 41.9218 63.7797 41.8012 64.1563 41.6093C64.9048 41.2321 65.5126 40.6261 65.891 39.8798C66.0834 39.5016 66.2071 39.1179 66.2786 38.7013C66.3528 38.2956 66.3776 37.879 66.3886 37.4679C66.3941 37.2778 66.3968 37.0878 66.3968 36.8978L66.3996 36.2235V5.21882C66.3996 5.02878 66.3959 4.83966 66.3886 4.65145C66.3833 4.23632 66.3466 3.82218 66.2786 3.41258C66.1455 2.58785 65.7551 1.82591 65.1629 1.23499C64.5707 0.644068 63.8068 0.254213 62.9797 0.1208C62.5689 0.0530315 62.1535 0.0163819 61.7371 0.0111653C61.3221 -9.83989e-05 60.9069 -0.00284056 60.4918 0.00294194H6.33204ZM6.33204 1.40627H61.1543C61.3339 1.40627 61.5144 1.40901 61.6959 1.41449C62.012 1.42545 62.3831 1.4419 62.7268 1.5022C63.0264 1.55701 63.2766 1.63924 63.5158 1.75984C63.9977 2.00436 64.3894 2.39492 64.6346 2.87537C64.7605 3.12388 64.8476 3.39006 64.8931 3.66474C64.9535 4.00187 64.97 4.37189 64.9783 4.68983C64.9838 4.86707 64.9865 5.04705 64.9865 5.22978V36.8923C64.9865 37.0695 64.9838 37.2486 64.9783 37.4295C64.97 37.7447 64.9535 38.1147 64.8903 38.4573C64.8302 38.8604 64.674 39.2433 64.4348 39.5738C64.1956 39.9043 63.8805 40.1728 63.5158 40.3567C63.2682 40.4817 63.0031 40.5686 62.7295 40.6144C62.3899 40.6649 62.0474 40.6942 61.7041 40.7021L61.1543 40.7103H5.66127C5.47799 40.7103 5.29839 40.7076 5.12244 40.7021C4.77731 40.6944 4.43299 40.6651 4.09154 40.6144C3.79189 40.5596 3.54172 40.4773 3.2998 40.3567C2.81544 40.1166 2.42339 39.7247 2.18367 39.2412C2.05783 38.9927 1.97069 38.7265 1.92526 38.4518C1.87035 38.1137 1.84094 37.772 1.83729 37.4295L1.83179 36.8895V5.22704L1.83729 4.68709C1.84828 4.37463 1.86478 4.00735 1.92526 3.65926C1.98024 3.36325 2.06271 3.11383 2.18367 2.87263C2.4294 2.3932 2.82108 2.00365 3.30255 1.75984C3.55095 1.63463 3.81698 1.54776 4.09154 1.5022C4.43517 1.4419 4.8063 1.42271 5.12244 1.41449L5.66127 1.40627H6.33204ZM19.2802 11.5475C18.4555 11.5913 17.4438 12.0929 16.861 12.7973C16.336 13.4003 15.8714 14.387 15.9923 15.3134C16.9215 15.3957 17.848 14.8502 18.4335 14.1678C18.9971 13.4606 19.382 12.515 19.2802 11.5502V11.5475ZM25.3475 12.6986V27.7542H27.6897V22.6096H30.9336C33.8971 22.6096 35.9782 20.5841 35.9782 17.6432C35.9782 14.7104 33.9384 12.6959 31.0078 12.6959L25.3475 12.6986ZM27.6897 14.6693H30.3893C32.4209 14.6693 33.581 15.7547 33.581 17.6541C33.581 19.5508 32.4209 20.6472 30.381 20.6472H27.6897V14.6693ZM19.0191 15.4916C17.782 15.519 16.7373 16.259 16.1325 16.259C15.4865 16.259 14.5023 15.5354 13.4357 15.5546C12.7421 15.573 12.0653 15.7715 11.4723 16.1306C10.8792 16.4897 10.3905 16.9969 10.0543 17.6021C8.60554 20.0908 9.67218 23.7827 11.0825 25.811C11.767 26.8141 12.5917 27.9187 13.6776 27.8776C14.703 27.8392 15.1071 27.2143 16.3525 27.2143C17.6005 27.2143 17.9634 27.8776 19.0466 27.8584C20.1737 27.8392 20.8802 26.8552 21.562 25.8493C22.3482 24.7064 22.6699 23.6018 22.6891 23.5443C22.6699 23.5223 20.5173 22.7001 20.4981 20.2306C20.4761 18.1639 22.1888 17.18 22.2685 17.1197C21.3008 15.6944 19.7943 15.5354 19.272 15.4943L19.0191 15.4916ZM41.5726 16.5797C38.851 16.5797 37.1575 18.0406 37.0311 20.0222H39.1671C39.365 19.041 40.1815 18.4161 41.4901 18.4161C42.8701 18.4161 43.6976 19.1452 43.6976 20.3649V21.2118L40.6819 21.3872C38.0675 21.5352 36.5912 22.7138 36.5912 24.6324C36.5912 26.6058 38.0977 27.9406 40.253 27.9406C41.699 27.9406 43.0901 27.1704 43.7278 25.948H43.7801V27.7542H45.9464V20.1894C45.9464 17.9885 44.2419 16.5797 41.5726 16.5797ZM46.9058 16.7771L50.881 27.7652C50.881 27.7734 50.6803 28.423 50.6803 28.4422C50.3366 29.5659 49.7731 30.0072 48.7257 30.0072C48.536 30.0072 48.1594 30.0072 47.9917 29.9661V31.7915C48.1566 31.8217 48.7257 31.8436 48.9126 31.8436C51.1944 31.8436 52.283 30.9885 53.2232 28.3271L57.3468 16.7771H54.9606L52.1785 25.7095H52.1373L49.3525 16.7743L46.9058 16.7771ZM43.6976 22.7768V23.6429C43.6976 25.0709 42.4605 26.1563 40.8825 26.1563C39.6674 26.1563 38.873 25.5314 38.873 24.5693C38.873 23.632 39.6372 23.0345 40.987 22.944L43.6976 22.7768Z" fill="black"/>
</svg>
