<svg width="15" height="16" viewBox="0 0 15 16" fill="none" xmlns="http://www.w3.org/2000/svg">
<path d="M14.2587 11.3524V13.3524C14.2595 13.5381 14.2215 13.7218 14.1471 13.892C14.0727 14.0621 13.9636 14.2148 13.8268 14.3403C13.69 14.4658 13.5285 14.5614 13.3526 14.6209C13.1767 14.6804 12.9903 14.7024 12.8054 14.6857C10.754 14.4628 8.78341 13.7618 7.05208 12.6391C5.4413 11.6155 4.07564 10.2499 3.05208 8.63907C1.9254 6.89987 1.22424 4.91973 1.00541 2.85907C0.988751 2.67471 1.01066 2.48891 1.06974 2.31348C1.12883 2.13806 1.22379 1.97686 1.34859 1.84015C1.47339 1.70344 1.62528 1.59421 1.79461 1.51942C1.96393 1.44462 2.14697 1.40591 2.33208 1.40573H4.33208C4.65562 1.40255 4.96927 1.51712 5.21459 1.72809C5.4599 1.93906 5.62013 2.23203 5.66541 2.5524C5.74983 3.19245 5.90638 3.82089 6.13208 4.42573C6.22177 4.66435 6.24119 4.92368 6.18802 5.17299C6.13485 5.4223 6.01132 5.65114 5.83208 5.8324L4.98541 6.67907C5.93445 8.3481 7.31638 9.73003 8.98541 10.6791L9.83208 9.8324C10.0133 9.65316 10.2422 9.52963 10.4915 9.47646C10.7408 9.42329 11.0001 9.44271 11.2387 9.5324C11.8436 9.7581 12.472 9.91465 13.1121 9.99907C13.4359 10.0448 13.7317 10.2079 13.9431 10.4574C14.1545 10.7069 14.2669 11.0255 14.2587 11.3524Z" stroke="white" stroke-width="1.5" stroke-linecap="round" stroke-linejoin="round"/>
</svg>
