<svg width="45" height="47" viewBox="0 0 45 47" fill="none" xmlns="http://www.w3.org/2000/svg">
<path d="M17.9043 40.6354C19.6658 40.6354 21.0937 39.144 21.0937 37.3043C21.0937 35.4646 19.6658 33.9732 17.9043 33.9732C16.1429 33.9732 14.715 35.4646 14.715 37.3043C14.715 39.144 16.1429 40.6354 17.9043 40.6354Z" stroke="white" stroke-width="1.5" stroke-linecap="round" stroke-linejoin="round"/>
<path d="M31.8 40.6354C33.5614 40.6354 34.9893 39.144 34.9893 37.3043C34.9893 35.4646 33.5614 33.9732 31.8 33.9732C30.0385 33.9732 28.6106 35.4646 28.6106 37.3043C28.6106 39.144 30.0385 40.6354 31.8 40.6354Z" stroke="white" stroke-width="1.5" stroke-linecap="round" stroke-linejoin="round"/>
<path d="M10.5112 10.8786L14.28 23.3414C14.8594 25.2566 15.1481 26.2143 15.705 26.9232C16.1925 27.5498 16.8281 28.0336 17.5462 28.3332C18.3619 28.672 19.3219 28.672 21.2456 28.672H28.4737C30.3975 28.672 31.3575 28.672 32.1713 28.3332C32.8912 28.0336 33.525 27.5498 34.0144 26.9232C34.5694 26.2143 34.8581 25.2566 35.4394 23.3414L36.2062 20.8034L36.6562 19.3033L37.2769 17.2471C37.4983 16.5137 37.5513 15.7361 37.4314 14.9773C37.3116 14.2186 37.0222 13.5 36.5869 12.8798C36.1516 12.2596 35.5825 11.7552 34.9258 11.4075C34.2691 11.0598 33.5432 10.8786 32.8069 10.8786H10.5112ZM10.5112 10.8786L10.4906 10.8061C10.4114 10.5291 10.3239 10.2548 10.2281 9.98359C9.84853 8.98003 9.20481 8.10912 8.37136 7.47149C7.53791 6.83387 6.54873 6.45555 5.51813 6.38026C5.325 6.36459 5.11312 6.36459 4.6875 6.36459" stroke="white" stroke-width="1.5" stroke-linecap="round" stroke-linejoin="round"/>
</svg>
