<svg width="42" height="40" viewBox="0 0 42 40" fill="none" xmlns="http://www.w3.org/2000/svg">
<mask id="path-1-inside-1_153_362" fill="white">
<path d="M41.2758 29.2589C40.9915 28.4873 40.4027 28.1218 39.8342 27.736C39.7326 27.6751 39.6108 27.6142 39.5296 27.5736C39.3875 27.4721 39.1641 27.3909 38.9814 27.2893C37.0727 26.2741 35.5702 24.9949 34.5347 23.4924C34.2563 23.0619 34.0054 22.6143 33.7834 22.1523C33.7022 21.8883 33.7022 21.7462 33.7631 21.6244C33.824 21.5228 33.9052 21.4213 34.0068 21.3604C34.3113 21.1371 34.6768 20.934 34.9002 20.7716C35.3265 20.5076 35.6311 20.3046 35.8342 20.1624C36.626 19.6142 37.1743 18.9848 37.5194 18.3756C38.0068 17.4619 38.0677 16.3858 37.6819 15.4315C37.1743 14.0711 35.8748 13.2183 34.3113 13.2183C33.9864 13.2183 33.6616 13.2589 33.2961 13.3198C33.2961 13.3401 33.1743 13.3604 33.093 13.3807C33.093 12.4467 33.0727 11.4721 32.9915 10.4975C32.7073 7.08629 31.5093 5.29949 30.2504 3.87817C29.4585 2.98477 28.5245 2.2132 27.489 1.62437C25.6007 0.548223 23.4484 0 21.1133 0C18.7783 0 16.6463 0.548223 14.758 1.62437C13.7022 2.2132 12.7682 2.98477 11.9763 3.87817C10.7174 5.29949 9.53975 7.08629 9.23518 10.4975C9.15396 11.4721 9.13366 12.4467 9.15396 13.3807C9.05244 13.3604 8.93061 13.3401 8.93061 13.3198C8.56513 13.2589 8.24025 13.2183 7.91538 13.2183C6.35193 13.2183 5.05244 14.0711 4.54482 15.4315C4.15904 16.3858 4.21995 17.4619 4.70726 18.3756C5.05244 18.9848 5.60066 19.6142 6.39254 20.1624C6.59558 20.3046 6.90015 20.5076 7.32655 20.7919L8.17934 21.3401C8.30117 21.4213 8.38239 21.5228 8.4636 21.6244C8.52452 21.7665 8.52452 21.9086 8.423 22.1726C8.21995 22.6396 7.97629 23.0457 7.69203 23.4924C6.6768 24.9746 5.23518 26.2335 3.38746 27.2284C2.39254 27.7563 1.37731 28.1218 0.950914 29.2589C0.626041 30.1523 0.808783 31.1675 1.66157 32C1.96614 32.3046 2.31132 32.5685 2.69711 32.7716C3.50929 33.198 4.36208 33.5635 5.23518 33.7868C5.41792 33.8477 5.60066 33.9086 5.74279 34.0305C6.04736 34.2741 6.00675 34.6802 6.41284 35.2284C6.61589 35.5533 6.90015 35.8173 7.16411 36.0203C7.9966 36.6091 8.93061 36.6294 9.94584 36.67C10.8392 36.7107 11.8545 36.7513 12.9915 37.1371C13.5194 37.2589 14.0068 37.6041 14.5956 37.9695C16.0372 38.8223 17.9052 40 21.1133 40C24.3012 40 26.1895 38.8223 27.6514 37.9492C28.2199 37.6041 28.7276 37.2589 29.2352 37.1371C30.3519 36.7513 31.3875 36.7107 32.2809 36.67C33.2961 36.6497 34.2301 36.6091 35.0626 36.0203C35.4078 35.7766 35.692 35.4518 35.9154 35.0863C36.1996 34.599 36.1996 34.2132 36.4636 34.0305C36.6057 33.9289 36.7682 33.8477 36.9509 33.8071C37.8443 33.5634 38.6971 33.198 39.5093 32.7716C39.9357 32.5482 40.3012 32.264 40.6057 31.9188H40.626C41.4179 31.0863 41.5804 30.1523 41.2758 29.2589ZM38.4332 30.7817C36.687 31.736 35.5296 31.6345 34.6362 32.1827C34.3113 32.4264 34.2098 32.7513 34.1489 33.0761L34.088 33.4822C34.0474 33.7665 33.9864 34.0102 33.7834 34.1523C33.093 34.6193 31.0829 34.1117 28.4839 34.9645C26.3316 35.6751 24.9712 37.7259 21.1133 37.7259C17.2555 37.7259 15.9357 35.6954 13.7428 34.9645C11.1641 34.1117 9.13366 34.6193 8.4636 34.1523C7.91538 33.7665 8.36208 32.7107 7.59051 32.1827C6.69711 31.6345 5.53975 31.736 3.85447 30.7817C3.22503 30.4569 3.1235 30.1523 3.20472 30.0102C3.28594 29.8274 3.52959 29.6853 3.69203 29.6041C7.04228 28 8.93061 25.9086 9.88492 24.264C10.7783 22.802 10.9611 21.6853 11.022 21.5228C11.0829 21.0964 11.1438 20.7716 10.6768 20.3452C10.2301 19.9188 8.24025 18.7005 7.69203 18.3147C6.75802 17.665 6.37223 17.0355 6.6565 16.2437C6.90015 15.6954 7.36716 15.4924 7.91538 15.4924C8.07782 15.4924 8.24025 15.5127 8.40269 15.5533C9.41792 15.7563 10.3925 16.264 10.9611 16.4061C11.022 16.4264 11.0829 16.4264 11.1641 16.4264C11.3469 16.4264 11.4484 16.3655 11.5093 16.2437C11.5296 16.1624 11.5499 16.0609 11.5499 15.9391C11.4687 14.8426 11.3265 12.7107 11.489 10.7005C11.5702 9.84772 11.7123 9.11675 11.8951 8.48731C12.3012 7.1066 12.9915 6.19289 13.6819 5.36041C14.1895 4.77157 16.5448 2.27411 21.1133 2.27411C24.8697 2.27411 27.1235 3.9797 28.0981 4.8934C28.3012 5.09645 28.4636 5.25888 28.5448 5.36041C29.3164 6.25381 30.0068 7.22843 30.4128 8.77157C30.555 9.3198 30.6768 9.96954 30.7377 10.7005C30.9002 12.6904 30.758 14.8426 30.6768 15.9391C30.6768 16.0203 30.6768 16.1015 30.6971 16.1624C30.7174 16.3452 30.8392 16.4264 31.0626 16.4264C31.1438 16.4264 31.2047 16.4264 31.2656 16.4061C31.8342 16.264 32.8088 15.7563 33.824 15.533C33.9864 15.5127 34.1489 15.4924 34.3113 15.4924C34.8189 15.4924 35.3265 15.6751 35.5296 16.1421L35.5499 16.2234H35.5702V16.2437C35.8748 17.0152 35.4687 17.665 34.555 18.2944C34.0068 18.6802 31.9966 19.9188 31.5499 20.3249C31.0829 20.7716 31.1438 21.0964 31.2047 21.5228C31.2656 21.7259 31.6311 23.6548 33.4585 25.8071C34.5753 27.1066 36.1793 28.467 38.5347 29.6041C38.6768 29.665 38.8595 29.7665 38.9611 29.8883C39.022 29.9898 39.0626 30.0711 39.0423 30.1523C39.022 30.3553 38.8392 30.5584 38.4332 30.7817Z"/>
</mask>
<path d="M41.2758 29.2589C40.9915 28.4873 40.4027 28.1218 39.8342 27.736C39.7326 27.6751 39.6108 27.6142 39.5296 27.5736C39.3875 27.4721 39.1641 27.3909 38.9814 27.2893C37.0727 26.2741 35.5702 24.9949 34.5347 23.4924C34.2563 23.0619 34.0054 22.6143 33.7834 22.1523C33.7022 21.8883 33.7022 21.7462 33.7631 21.6244C33.824 21.5228 33.9052 21.4213 34.0068 21.3604C34.3113 21.1371 34.6768 20.934 34.9002 20.7716C35.3265 20.5076 35.6311 20.3046 35.8342 20.1624C36.626 19.6142 37.1743 18.9848 37.5194 18.3756C38.0068 17.4619 38.0677 16.3858 37.6819 15.4315C37.1743 14.0711 35.8748 13.2183 34.3113 13.2183C33.9864 13.2183 33.6616 13.2589 33.2961 13.3198C33.2961 13.3401 33.1743 13.3604 33.093 13.3807C33.093 12.4467 33.0727 11.4721 32.9915 10.4975C32.7073 7.08629 31.5093 5.29949 30.2504 3.87817C29.4585 2.98477 28.5245 2.2132 27.489 1.62437C25.6007 0.548223 23.4484 0 21.1133 0C18.7783 0 16.6463 0.548223 14.758 1.62437C13.7022 2.2132 12.7682 2.98477 11.9763 3.87817C10.7174 5.29949 9.53975 7.08629 9.23518 10.4975C9.15396 11.4721 9.13366 12.4467 9.15396 13.3807C9.05244 13.3604 8.93061 13.3401 8.93061 13.3198C8.56513 13.2589 8.24025 13.2183 7.91538 13.2183C6.35193 13.2183 5.05244 14.0711 4.54482 15.4315C4.15904 16.3858 4.21995 17.4619 4.70726 18.3756C5.05244 18.9848 5.60066 19.6142 6.39254 20.1624C6.59558 20.3046 6.90015 20.5076 7.32655 20.7919L8.17934 21.3401C8.30117 21.4213 8.38239 21.5228 8.4636 21.6244C8.52452 21.7665 8.52452 21.9086 8.423 22.1726C8.21995 22.6396 7.97629 23.0457 7.69203 23.4924C6.6768 24.9746 5.23518 26.2335 3.38746 27.2284C2.39254 27.7563 1.37731 28.1218 0.950914 29.2589C0.626041 30.1523 0.808783 31.1675 1.66157 32C1.96614 32.3046 2.31132 32.5685 2.69711 32.7716C3.50929 33.198 4.36208 33.5635 5.23518 33.7868C5.41792 33.8477 5.60066 33.9086 5.74279 34.0305C6.04736 34.2741 6.00675 34.6802 6.41284 35.2284C6.61589 35.5533 6.90015 35.8173 7.16411 36.0203C7.9966 36.6091 8.93061 36.6294 9.94584 36.67C10.8392 36.7107 11.8545 36.7513 12.9915 37.1371C13.5194 37.2589 14.0068 37.6041 14.5956 37.9695C16.0372 38.8223 17.9052 40 21.1133 40C24.3012 40 26.1895 38.8223 27.6514 37.9492C28.2199 37.6041 28.7276 37.2589 29.2352 37.1371C30.3519 36.7513 31.3875 36.7107 32.2809 36.67C33.2961 36.6497 34.2301 36.6091 35.0626 36.0203C35.4078 35.7766 35.692 35.4518 35.9154 35.0863C36.1996 34.599 36.1996 34.2132 36.4636 34.0305C36.6057 33.9289 36.7682 33.8477 36.9509 33.8071C37.8443 33.5634 38.6971 33.198 39.5093 32.7716C39.9357 32.5482 40.3012 32.264 40.6057 31.9188H40.626C41.4179 31.0863 41.5804 30.1523 41.2758 29.2589ZM38.4332 30.7817C36.687 31.736 35.5296 31.6345 34.6362 32.1827C34.3113 32.4264 34.2098 32.7513 34.1489 33.0761L34.088 33.4822C34.0474 33.7665 33.9864 34.0102 33.7834 34.1523C33.093 34.6193 31.0829 34.1117 28.4839 34.9645C26.3316 35.6751 24.9712 37.7259 21.1133 37.7259C17.2555 37.7259 15.9357 35.6954 13.7428 34.9645C11.1641 34.1117 9.13366 34.6193 8.4636 34.1523C7.91538 33.7665 8.36208 32.7107 7.59051 32.1827C6.69711 31.6345 5.53975 31.736 3.85447 30.7817C3.22503 30.4569 3.1235 30.1523 3.20472 30.0102C3.28594 29.8274 3.52959 29.6853 3.69203 29.6041C7.04228 28 8.93061 25.9086 9.88492 24.264C10.7783 22.802 10.9611 21.6853 11.022 21.5228C11.0829 21.0964 11.1438 20.7716 10.6768 20.3452C10.2301 19.9188 8.24025 18.7005 7.69203 18.3147C6.75802 17.665 6.37223 17.0355 6.6565 16.2437C6.90015 15.6954 7.36716 15.4924 7.91538 15.4924C8.07782 15.4924 8.24025 15.5127 8.40269 15.5533C9.41792 15.7563 10.3925 16.264 10.9611 16.4061C11.022 16.4264 11.0829 16.4264 11.1641 16.4264C11.3469 16.4264 11.4484 16.3655 11.5093 16.2437C11.5296 16.1624 11.5499 16.0609 11.5499 15.9391C11.4687 14.8426 11.3265 12.7107 11.489 10.7005C11.5702 9.84772 11.7123 9.11675 11.8951 8.48731C12.3012 7.1066 12.9915 6.19289 13.6819 5.36041C14.1895 4.77157 16.5448 2.27411 21.1133 2.27411C24.8697 2.27411 27.1235 3.9797 28.0981 4.8934C28.3012 5.09645 28.4636 5.25888 28.5448 5.36041C29.3164 6.25381 30.0068 7.22843 30.4128 8.77157C30.555 9.3198 30.6768 9.96954 30.7377 10.7005C30.9002 12.6904 30.758 14.8426 30.6768 15.9391C30.6768 16.0203 30.6768 16.1015 30.6971 16.1624C30.7174 16.3452 30.8392 16.4264 31.0626 16.4264C31.1438 16.4264 31.2047 16.4264 31.2656 16.4061C31.8342 16.264 32.8088 15.7563 33.824 15.533C33.9864 15.5127 34.1489 15.4924 34.3113 15.4924C34.8189 15.4924 35.3265 15.6751 35.5296 16.1421L35.5499 16.2234H35.5702V16.2437C35.8748 17.0152 35.4687 17.665 34.555 18.2944C34.0068 18.6802 31.9966 19.9188 31.5499 20.3249C31.0829 20.7716 31.1438 21.0964 31.2047 21.5228C31.2656 21.7259 31.6311 23.6548 33.4585 25.8071C34.5753 27.1066 36.1793 28.467 38.5347 29.6041C38.6768 29.665 38.8595 29.7665 38.9611 29.8883C39.022 29.9898 39.0626 30.0711 39.0423 30.1523C39.022 30.3553 38.8392 30.5584 38.4332 30.7817Z" fill="white" stroke="black" stroke-width="6.4" mask="url(#path-1-inside-1_153_362)"/>
</svg>
