<svg width="47" height="47" viewBox="0 0 47 47" fill="none" xmlns="http://www.w3.org/2000/svg">
<path fill-rule="evenodd" clip-rule="evenodd" d="M23.5 26.4375C25.5775 26.4375 27.5699 25.6122 29.039 24.1432C30.508 22.6741 31.3333 20.6817 31.3333 18.6041C31.3333 16.5266 30.508 14.5342 29.039 13.0651C27.5699 11.5961 25.5775 10.7708 23.5 10.7708C21.4224 10.7708 19.43 11.5961 17.961 13.0651C16.4919 14.5342 15.6666 16.5266 15.6666 18.6041C15.6666 20.6817 16.4919 22.6741 17.961 24.1432C19.43 25.6122 21.4224 26.4375 23.5 26.4375ZM23.5 24.4791C24.2715 24.4791 25.0354 24.3272 25.7482 24.0319C26.461 23.7367 27.1087 23.3039 27.6542 22.7584C28.1998 22.2129 28.6325 21.5652 28.9278 20.8524C29.223 20.1396 29.375 19.3757 29.375 18.6041C29.375 17.8326 29.223 17.0687 28.9278 16.3559C28.6325 15.6431 28.1998 14.9954 27.6542 14.4499C27.1087 13.9044 26.461 13.4716 25.7482 13.1764C25.0354 12.8811 24.2715 12.7291 23.5 12.7291C21.9418 12.7291 20.4475 13.3481 19.3457 14.4499C18.2439 15.5517 17.625 17.046 17.625 18.6041C17.625 20.1623 18.2439 21.6566 19.3457 22.7584C20.4475 23.8602 21.9418 24.4791 23.5 24.4791Z" fill="white"/>
<path fill-rule="evenodd" clip-rule="evenodd" d="M43.0833 23.5C43.0833 34.3159 34.3158 43.0833 23.5 43.0833C12.6841 43.0833 3.91663 34.3159 3.91663 23.5C3.91663 12.6841 12.6841 3.91666 23.5 3.91666C34.3158 3.91666 43.0833 12.6841 43.0833 23.5ZM32.9293 38.3931C30.1106 40.1834 26.8391 41.1312 23.5 41.125C20.081 41.1312 16.735 40.1373 13.8738 38.2658C13.6388 37.9721 13.4005 37.6685 13.159 37.3552C12.8788 36.9882 12.7277 36.539 12.7291 36.0774C12.7291 35.0228 13.487 34.1386 14.5004 33.9908C21.2028 33.0116 25.8176 33.0958 32.5289 34.0251C33.0146 34.0961 33.4584 34.3402 33.7784 34.7124C34.0985 35.0847 34.2734 35.56 34.2708 36.0509C34.2708 36.5209 34.1092 36.9772 33.8174 37.3337C33.5165 37.6999 33.2205 38.053 32.9293 38.3931ZM36.2144 35.7063C36.0578 33.8733 34.6664 32.3438 32.7971 32.0853C25.9273 31.1346 21.1255 31.0435 14.2175 32.053C12.3375 32.3272 10.9519 33.8703 10.7874 35.7082C7.62994 32.4291 5.86874 28.0522 5.87496 23.5C5.87496 13.7661 13.7661 5.87499 23.5 5.87499C33.2339 5.87499 41.125 13.7661 41.125 23.5C41.1312 28.0513 39.3707 32.4273 36.2144 35.7063Z" fill="white"/>
</svg>
