<svg width="67" height="31" viewBox="0 0 67 31" fill="none" xmlns="http://www.w3.org/2000/svg">
<path d="M25.2279 0.466687L16.5284 21.4792H10.853L6.57192 4.70923C6.31237 3.67882 6.08681 3.29961 5.29699 2.86389C4.00597 2.15382 1.87398 1.48974 0 1.07663L0.126403 0.466687H9.26376C10.4266 0.466687 11.4736 1.2506 11.7399 2.60793L14.0019 14.7682L19.5865 0.466687H25.2279ZM32.9004 0.466687L28.4612 21.4792H23.0915L27.5312 0.466687H32.9004ZM47.4655 14.6187C47.4878 9.07398 39.8933 8.76625 39.9429 6.28889C39.961 5.53572 40.6696 4.73394 42.2207 4.52896C42.989 4.42831 45.1116 4.34815 47.5159 5.46976L48.4565 1.0112C47.1647 0.538167 45.5023 0.0830078 43.4344 0.0830078C38.1265 0.0830078 34.3928 2.93748 34.3629 7.02813C34.3282 10.0539 37.0299 11.7403 39.0617 12.7481C41.1545 13.7772 41.8563 14.4387 41.8467 15.3584C41.8316 16.7683 40.1752 17.3925 38.6352 17.4156C35.9348 17.4589 34.3694 16.6766 33.1207 16.0877L32.1461 20.6939C33.4023 21.2768 35.7176 21.7832 38.1156 21.809C43.7583 21.809 47.4489 18.9871 47.4655 14.6187ZM61.4815 21.4794H66.446L62.1088 0.466687H57.5285C56.4954 0.466687 55.6272 1.07374 55.242 2.00692L47.1855 21.4792H52.8238L53.9422 18.3404H60.8308L61.4815 21.4794ZM55.4884 14.0347L58.3154 6.14383L59.9395 14.0347H55.4884ZM39.7723 27.2633H37.5905V29.3191H40.0308V29.9372H36.8554V24.2338H39.9057V24.8519H37.5905V26.6538H39.7721L39.7723 27.2633ZM41.1581 23.9295H41.8931V29.9369H41.1581V23.9295ZM43.7479 28.0246C43.7645 29.0319 44.3916 29.4463 45.135 29.4463C45.6619 29.4463 45.9876 29.3533 46.2555 29.235L46.3889 29.7682C46.1299 29.8865 45.6787 30.0302 45.0348 30.0302C43.79 30.0302 43.0463 29.1927 43.0463 27.957C43.0463 26.7219 43.7645 25.7569 44.9432 25.7569C46.2721 25.7569 46.6147 26.925 46.6147 27.678C46.6147 27.8301 46.6061 27.94 46.5893 28.0248L43.7479 28.0246ZM45.904 27.4916C45.9126 27.0265 45.712 26.2901 44.8845 26.2901C44.1323 26.2901 43.8146 26.9755 43.756 27.4916H45.904ZM50.616 29.7932C50.4239 29.8865 49.9975 30.0305 49.4545 30.0305C48.2343 30.0305 47.4403 29.1927 47.4403 27.9402C47.4403 26.6793 48.2925 25.7572 49.6131 25.7572C50.0476 25.7572 50.432 25.8668 50.6326 25.9771L50.466 26.544C50.2897 26.451 50.0141 26.349 49.6131 26.349C48.6852 26.349 48.1842 27.0515 48.1842 27.8982C48.1842 28.8455 48.7859 29.4295 49.5882 29.4295C50.006 29.4295 50.2817 29.328 50.4906 29.235L50.616 29.7932ZM52.6789 24.86V25.8415H53.7317V26.4081H52.6789V28.6169C52.6789 29.1252 52.8212 29.4124 53.2305 29.4124C53.4309 29.4124 53.5482 29.3958 53.6569 29.3614L53.6904 29.929C53.5482 29.9795 53.3226 30.0302 53.0384 30.0302C52.6955 30.0302 52.4196 29.9117 52.2444 29.7175C52.0438 29.4886 51.9602 29.1252 51.9602 28.6427V26.4081H51.3331V25.8415H51.9602V25.08L52.6789 24.86ZM54.7587 27.1195C54.7587 26.637 54.7499 26.2226 54.7253 25.8415H55.369L55.4027 26.6536H55.4271C55.6114 26.1041 56.0622 25.7569 56.5551 25.7569C56.6307 25.7569 56.6893 25.7656 56.7563 25.7737V26.4765C56.681 26.4591 56.606 26.4591 56.505 26.4591C55.9875 26.4591 55.6192 26.8483 55.5192 27.4073C55.502 27.5221 55.4935 27.638 55.4941 27.7542V29.9375H54.7587V27.1195ZM61.2764 27.8553C61.2764 29.3701 60.2315 30.0302 59.2623 30.0302C58.1755 30.0302 57.3234 29.2177 57.3234 27.9234C57.3234 26.5608 58.2176 25.7572 59.3292 25.7572C60.4907 25.7572 61.2764 26.611 61.2764 27.8553ZM58.0753 27.8982C58.0753 28.7951 58.5768 29.4723 59.2955 29.4723C59.9979 29.4723 60.524 28.8032 60.524 27.8811C60.524 27.1873 60.1814 26.3154 59.3121 26.3154C58.4517 26.3154 58.0753 27.1282 58.0753 27.8982ZM62.4034 26.9503C62.4034 26.519 62.3946 26.1803 62.3697 25.8421H63.0217L63.0635 26.519H63.0801C63.2807 26.138 63.7487 25.7575 64.4173 25.7575C64.9769 25.7575 65.8464 26.0959 65.8464 27.5V29.9375H65.1111V27.5765C65.1111 26.9169 64.8687 26.3663 64.1751 26.3663C63.6986 26.3663 63.3222 26.7135 63.1891 27.1279C63.1553 27.2212 63.1387 27.3479 63.1387 27.4751V29.9375H62.4034V26.9503Z" fill="#1A1F71"/>
</svg>
