<svg width="40" height="40" viewBox="0 0 40 40" fill="none" xmlns="http://www.w3.org/2000/svg">
<path d="M14.7697 16.0916C14.7712 16.0949 14.7718 16.0959 14.7711 16.0945L14.7697 16.0916ZM14.7697 16.0916C14.7701 16.0926 14.7706 16.0935 14.7711 16.0945L14.7697 16.0916ZM27.4762 25.4535C27.6629 25.5445 27.8284 25.6251 27.9572 25.6877C27.9204 25.8468 27.8699 26.0234 27.8022 26.2113C27.7918 26.227 27.7598 26.2727 27.6891 26.3456C27.5633 26.4752 27.3759 26.6275 27.1384 26.7802C26.9043 26.9307 26.6572 27.0586 26.4366 27.1512C26.3275 27.197 26.2341 27.2302 26.1607 27.2526C26.0938 27.2729 26.0582 27.2797 26.0521 27.2808C25.3336 27.3802 24.5998 27.4032 23.833 27.1563L23.8187 27.1517L23.8044 27.1473C23.4941 27.0525 23.1501 26.9437 22.7644 26.8079C23.5832 26.703 24.1405 26.2432 24.4811 25.8387C24.6712 25.6204 25.1443 25.0614 25.5674 24.5295C25.8288 24.6542 26.1299 24.7994 26.4353 24.9474C26.7937 25.121 27.1645 25.3017 27.4762 25.4535ZM13.1653 17.4837C13.0297 17.8611 12.9921 18.2322 13.0251 18.5843C12.8973 18.3772 12.7586 18.136 12.6231 17.8692C12.2128 17.0616 11.92 16.1894 11.92 15.4201C11.92 14.5736 12.1361 13.9983 12.3586 13.6022C12.5565 13.2499 12.7516 13.0342 12.9772 12.7846C13.0137 12.7442 13.0511 12.703 13.0893 12.6601H13.3428C13.685 13.5071 14.2412 14.8664 14.5564 15.6077C14.4194 15.7682 14.3169 15.893 14.2334 15.9946C14.1134 16.1406 14.0328 16.2388 13.9457 16.3258C13.9407 16.3309 13.9343 16.3372 13.9266 16.3447C13.8071 16.4617 13.3835 16.8766 13.1653 17.4837ZM13.1474 12.1907C13.1474 12.1906 13.1484 12.1922 13.1502 12.1955C13.1483 12.1924 13.1474 12.1907 13.1474 12.1907Z" fill="white" stroke="black" stroke-width="4"/>
</svg>
